<?xml version="1.0" encoding="utf-8"?>
<!-- Generator: Adobe Illustrator 16.0.0, SVG Export Plug-In . SVG Version: 6.00 Build 0)  -->
<!DOCTYPE svg PUBLIC "-//W3C//DTD SVG 1.1//EN" "http://www.w3.org/Graphics/SVG/1.1/DTD/svg11.dtd">
<svg version="1.1" id="Layer_1" opacity="0.5" xmlns="http://www.w3.org/2000/svg" xmlns:xlink="http://www.w3.org/1999/xlink"
	 x="0px" y="0px" width="242.628px" height="240.518px" viewBox="0 0 242.628 240.518" enable-background="new 0 0 242.628 240.518"
	 xml:space="preserve">
<path opacity="0.5" fill="none" stroke="#FFFFFF" stroke-width="5" stroke-miterlimit="10" d="M229.271,121.924
	c0,20.502-3.173,33.079-8.91,45.693c-5.737,12.255-14.04,24.547-24.3,36.054c-20.519,23.579-48.865,41.351-80.176,31.639
	c-31.31-9.635-59.657-19.787-80.176-37.091c-10.259-8.957-18.562-20.638-24.299-34.906C5.673,149.38,2.5,132.859,2.5,121.924
	c0-13.17,3.173-19.676,8.911-28.176c5.737-8.12,14.04-18.234,24.299-29.764c20.519-23.425,48.865-50.372,80.176-55.446
	c31.311-5,59.657-9.085,80.176,8.765c10.259,8.92,18.562,23.711,24.3,43.337C226.099,79.857,229.271,103.909,229.271,121.924z"/>
<path opacity="0.5" fill="none" stroke="#FFFFFF" stroke-width="3" stroke-miterlimit="10" d="M237.271,112.791
	c8.635,23.449,2.814,46.767-17.926,67.181c-20.297,20.436-55.515,37.967-95.46,50.338c-39.945,12.396-75.163,3.695-95.46-16.832
	C7.686,192.78,1.866,160.255,10.5,121.057c8.635-40.693,28.197-78.602,48.495-98.5c20.74-20.952,42.215-23.892,64.891-19.019
	c22.676,4.898,44.151,26.492,64.891,46.652C209.074,71.256,228.637,90.888,237.271,112.791z"/>
</svg>
