<?xml version="1.0" encoding="utf-8"?>
<!-- Generator: Adobe Illustrator 16.0.0, SVG Export Plug-In . SVG Version: 6.00 Build 0)  -->
<!DOCTYPE svg PUBLIC "-//W3C//DTD SVG 1.1//EN" "http://www.w3.org/Graphics/SVG/1.1/DTD/svg11.dtd">
<svg version="1.1" id="Layer_1" xmlns="http://www.w3.org/2000/svg" xmlns:xlink="http://www.w3.org/1999/xlink" x="0px" y="0px"
	 width="160px" height="60px" viewBox="0 0 160 60" enable-background="new 0 0 160 60" xml:space="preserve">
<g>
	<path fill="#EF745C" d="M138.094,44.325h2.583v1.188h-4.768v-1.055c2.593-1.919,3.353-2.573,3.353-3.353
		c0-0.551-0.503-0.826-1.025-0.826c-0.723,0-1.273,0.285-1.7,0.73l-0.77-0.893c0.618-0.712,1.558-1.035,2.441-1.035
		c1.349,0,2.421,0.761,2.421,2.023C140.629,42.188,139.736,43.128,138.094,44.325 M146.503,42.35c0,1.634-0.817,3.277-2.621,3.277
		c-1.814,0-2.622-1.644-2.622-3.277s0.808-3.268,2.622-3.268C145.686,39.082,146.503,40.716,146.503,42.35 M145.125,42.35
		c0-1.168-0.341-2.07-1.243-2.07c-0.912,0-1.254,0.902-1.254,2.07s0.342,2.079,1.254,2.079
		C144.784,44.429,145.125,43.518,145.125,42.35 M147.124,41.182l0.77,0.807l1.054-1.072v4.597h1.349v-6.335h-1.178L147.124,41.182z
		 M156.431,43.015v1.187h-0.817v1.312h-1.349v-1.312h-3.03v-1.063l2.517-3.96h1.862v3.837H156.431z M154.265,40.374l-1.71,2.641
		h1.71V40.374z"/>
	<path fill="#EF745C" d="M20.146,53.146c-4.866,0-9.161-1.633-12.094-4.6C3.87,44.372,2.604,37.872,4.393,29.75
		c1.679-7.915,5.538-15.748,9.829-19.954c2.861-2.89,6.004-4.296,9.609-4.296c1.145,0,2.333,0.136,3.632,0.415
		c4.444,0.96,8.634,5.039,12.686,8.982l0.486,0.473l0.581,0.603c3.892,4.034,7.569,7.844,9.241,12.084
		c1.792,4.868,0.528,9.615-3.654,13.732c-3.894,3.92-10.758,7.542-19.326,10.195C24.993,52.756,22.526,53.146,20.146,53.146
		 M23.831,5.83c-3.512,0-6.579,1.374-9.376,4.199c-4.25,4.167-8.073,11.934-9.74,19.79c-1.764,8.008-0.529,14.403,3.571,18.495
		c2.872,2.903,7.083,4.503,11.86,4.503c2.346,0,4.78-0.387,7.233-1.148c8.517-2.638,15.333-6.229,19.191-10.113
		c4.084-4.021,5.322-8.647,3.579-13.381c-1.646-4.177-5.301-7.964-9.17-11.974l-0.578-0.599l-0.482-0.469
		c-4.019-3.912-8.174-7.956-12.525-8.896C26.118,5.963,24.953,5.83,23.831,5.83"/>
	<path fill="#323C4F" d="M29.364,53.887c-1.236,0-2.481-0.192-3.698-0.569c-5.866-1.806-11.961-3.878-16.351-7.58
		c-2.184-1.906-3.879-4.34-5.045-7.239c-1.097-2.662-1.834-6.095-1.834-8.538c0-2.684,0.634-4.115,1.884-5.966
		c1.145-1.621,2.806-3.656,4.943-6.058c5.961-6.806,11.35-10.519,16.472-11.349c3.086-0.493,5.641-0.87,8.091-0.87
		c3.635,0,6.335,0.875,8.496,2.755c2.162,1.879,3.863,4.901,5.056,8.982c1.104,3.698,1.818,8.608,1.818,12.505
		c0,4.462-0.736,6.995-1.843,9.428c-1.185,2.529-2.861,5.018-4.985,7.4C39.551,50.023,35.005,53.887,29.364,53.887 M33.825,6.726
		c-2.375,0-4.89,0.371-7.931,0.857c-4.879,0.791-10.073,4.396-15.875,11.021c-2.115,2.377-3.753,4.382-4.87,5.963
		c-1.177,1.744-1.705,2.94-1.705,5.393c0,1.935,0.544,5.207,1.76,8.158c1.107,2.755,2.711,5.059,4.768,6.854
		c4.238,3.573,10.224,5.606,15.992,7.38c1.122,0.349,2.266,0.524,3.4,0.524c2.905,0,7.387-1.172,12.246-6.756
		c2.034-2.28,3.702-4.754,4.827-7.156c1.049-2.307,1.75-4.725,1.75-9.005c0-3.808-0.697-8.604-1.776-12.219
		c-1.123-3.84-2.765-6.781-4.75-8.507C39.692,7.522,37.203,6.726,33.825,6.726"/>
	<path fill="#323C4F" d="M56.914,34.436h5.274v2.337H54.26V24.299h2.654V34.436z M71.806,24.299l4.805,12.473h-3.028l-0.768-2.112
		h-5.348l-0.786,2.112h-3.029l4.824-12.473H71.806z M72.085,32.323l-1.944-5.368l-1.944,5.368H72.085z M86.642,31.706
		c0,1.738-0.991,2.936-2.917,2.936s-2.936-1.197-2.936-2.936v-7.407h-2.692v7.5c0,3.066,1.832,5.198,5.628,5.198
		s5.629-2.112,5.629-5.217v-7.481h-2.712V31.706z M95.009,27.685c0-0.748,0.635-1.253,1.776-1.253c1.271,0,2.618,0.43,3.628,1.365
		l1.478-1.944c-1.234-1.141-2.88-1.739-4.862-1.739c-2.936,0-4.731,1.719-4.731,3.796c0,4.693,7.182,3.178,7.182,5.386
		c0,0.709-0.712,1.382-2.17,1.382c-1.721,0-3.085-0.766-3.964-1.683l-1.44,2.021c1.158,1.178,2.879,1.981,5.273,1.981
		c3.366,0,4.992-1.72,4.992-4.002C102.17,28.339,95.009,29.667,95.009,27.685 M111.545,24.299l4.808,12.473h-3.03l-0.768-2.112
		h-5.348l-0.785,2.112h-3.029l4.824-12.473H111.545z M111.825,32.323l-1.944-5.368l-1.944,5.368H111.825z M126.964,32.136
		l-5.778-7.836h-2.73v12.473h2.654v-8.134l5.947,8.134h2.561V24.299h-2.653V32.136z M141.539,32.136l-5.779-7.836h-2.729v12.473
		h2.653v-8.134l5.948,8.134h2.561V24.299h-2.653V32.136z M156.431,26.638v-2.339h-8.825v12.473h8.825v-2.337h-6.172v-2.824h6.041
		v-2.337h-6.041v-2.636H156.431z M21.221,31.985c0,2.352-1.341,3.972-3.947,3.972s-3.972-1.62-3.972-3.972V21.967H9.659v10.146
		c0,4.148,2.479,7.032,7.615,7.032s7.615-2.858,7.615-7.059V21.967h-3.668V31.985z M43.155,21.967h-4.326l-3.821,5.769l-3.871-5.769
		h-4.275l5.743,8.222l-6.123,8.652h4.276l4.25-6.173l4.225,6.173h4.301l-6.122-8.677L43.155,21.967z"/>
</g>
</svg>
