<?xml version="1.0" encoding="utf-8"?>
<!-- Generator: Adobe Illustrator 17.0.1, SVG Export Plug-In . SVG Version: 6.00 Build 0)  -->
<!DOCTYPE svg PUBLIC "-//W3C//DTD SVG 1.1//EN" "http://www.w3.org/Graphics/SVG/1.1/DTD/svg11.dtd">
<svg version="1.1" id="blob2" xmlns="http://www.w3.org/2000/svg" xmlns:xlink="http://www.w3.org/1999/xlink" x="0px" y="0px"
	 width="140px" height="140px" viewBox="0 0 140 140" enable-background="new 0 0 140 140" xml:space="preserve">
<path id="blob2_1_" fill="#323C4F" d="M139.502,69.84c-1.152,9.857-4.185,23.682-8.453,34.777
	c-4.276,11.354-9.788,19.977-16.068,25.441C102.344,140.78,86.84,140.199,70,139.86c-16.84-0.364-32.344-15.704-44.976-30.202
	c-6.285-7.154-11.797-13.663-16.073-19.147C4.683,84.777,1.65,80.069,0.498,70.758c-1.152-7.783-0.295-19.38,2.471-28.91
	c2.758-9.766,7.424-17.466,13.722-22.957C29.208,8.35,48.455,4.691,70,0.738c21.545-3.975,40.792,8.736,53.315,23.27
	c6.292,7.151,10.959,14.288,13.717,20.969C139.797,51.903,140.654,58.373,139.502,69.84z"/>
</svg>
