<?xml version="1.0" encoding="UTF-8" standalone="no"?>
<svg width="200px" height="200px" viewBox="0 0 200 200" version="1.1" xmlns="http://www.w3.org/2000/svg" xmlns:xlink="http://www.w3.org/1999/xlink" xmlns:sketch="http://www.bohemiancoding.com/sketch/ns">
    <title>icon_Plane</title>
    <description>Created with Sketch (http://www.bohemiancoding.com/sketch)</description>
    <defs></defs>
    <g id="Page-1" stroke="none" stroke-width="1" fill="none" fill-rule="evenodd" sketch:type="MSPage">
        <g id="icon_Plane" sketch:type="MSArtboardGroup" fill="#000000">
            <g id="flight" sketch:type="MSLayerGroup" transform="translate(38.000000, 38.000000)">
                <path d="M88.9892231,18.3273574 L72.0200555,35.3016228 L48.5937447,30.0368319 C50.8043366,26.9486656 54.1905033,19.7457841 51.430458,16.989862 C48.2615171,13.8292836 39.333963,18.6851588 37.3405969,20.6828828 L31.7608756,26.2628797 L15.3198648,22.5698589 L2.9678101,34.9225238 L16.6104416,41.4055431 L16.1078408,41.9081688 L26.5048634,52.305705 L30.7088213,48.1057989 L50.0504353,57.2978854 L32.1697713,80.3079185 L7.95122529,80.0608652 L1,87.0166934 L23.0079541,92.8139268 L34.1929526,103.999478 L39.981381,126 L46.9326063,119.044172 L46.6898246,93.2952548 L69.7029804,76.9726989 L78.8946128,96.3152684 L74.6949142,100.519434 L85.1004555,110.908451 L85.5945377,110.414345 L92.0814961,124.05765 L104.43781,111.700725 L100.740712,95.2716812 L106.320434,89.6959438 C108.3138,87.6982197 113.169435,78.7574461 110.009013,75.5968677 C107.334154,72.8281669 100.037923,76.2145009 96.9584281,78.425202 L91.6938971,54.9679173 L108.671583,37.9936519 C114.455753,32.2049375 130.705094,8.26632484 124.682402,2.29870983 C118.715082,-3.66890518 94.7819108,12.5386431 88.9892231,18.3273574 L88.9892231,18.3273574 Z" id="plane" sketch:type="MSShapeGroup"></path>
            </g>
        </g>
    </g>
</svg>