<?xml version="1.0" encoding="UTF-8" standalone="no"?>
<svg width="200px" height="200px" viewBox="0 0 200 200" version="1.1" xmlns="http://www.w3.org/2000/svg" xmlns:xlink="http://www.w3.org/1999/xlink" xmlns:sketch="http://www.bohemiancoding.com/sketch/ns">
    <title>icon_Train</title>
    <description>Created with Sketch (http://www.bohemiancoding.com/sketch)</description>
    <defs></defs>
    <g id="Page-1" stroke="none" stroke-width="1" fill="none" fill-rule="evenodd" sketch:type="MSPage">
        <g id="icon_Train" sketch:type="MSArtboardGroup" fill="#000000">
            <g id="-train" sketch:type="MSLayerGroup" transform="translate(46.000000, 18.000000)">
                <path d="M47.0007635,12 C43.6979515,11.9880397 41.0068346,9.29696152 41,6.00103154 C41.0068346,2.65726017 43.6979515,-0.0355265815 47.0007635,0.000354460252 C50.3360398,-0.0355265815 53.025448,2.65726017 52.9998183,6.00103154 C53.025448,9.29696152 50.3343311,11.9880397 47.0007635,12 L47.0007635,12 L47.0007635,12 Z" id="Shape" sketch:type="MSShapeGroup"></path>
                <path d="M63.0000683,12 C66.3075477,11.9880397 69,9.29696152 69,6.00103154 C69,2.65726017 66.3075477,-0.0338179605 63.0000683,0.000354460252 C59.6686711,-0.0355265815 56.9779272,2.65726017 57.0001365,6.00103154 C56.9779272,9.29696152 59.6686711,11.9880397 63.0000683,12 L63.0000683,12 L63.0000683,12 Z" id="Shape" sketch:type="MSShapeGroup"></path>
                <path d="M85.8284683,128.86004 C93.892266,127.527198 101.932892,119.142977 101.914686,108.910241 L101.914686,34.205174 C101.934547,23.6725899 93.0183569,13.9884777 80.9408667,14.0000103 L55.0844117,14.0000103 L29.1402347,14.0000103 C16.9899187,13.9884777 8.07372856,23.6725899 8.08531447,34.205174 L8.08531447,108.910241 C8.07372856,119.142977 16.1160096,127.528845 24.1715317,128.86004 L0,165 L13.9792356,165 L31.2455612,139.677645 L55,139.677645 L78.7527836,139.677645 L96.1018658,165 L110,165 L85.8284683,128.86004 L85.8284683,128.86004 Z M41,21.509238 C41.0032747,19.5999974 42.5865979,18.0268907 44.4138872,18 L54.4967253,18 L64.5812007,18 C66.4101273,18.0268907 68,19.5999974 68,21.509238 L68,27.490741 C68,29.3949396 66.5001819,31.0067017 64.5812007,30.999979 L54.4983626,30.999979 L44.4155246,30.999979 C42.5047301,31.0067017 41.0049121,29.3949396 41.0016374,27.490741 L41.0016374,21.509238 L41,21.509238 Z M27.9580162,118 C23.017068,117.962854 18.9887172,113.934887 19.0000237,108.958878 C18.9887172,103.99902 23.017068,99.9758978 27.9580162,100.000124 C32.9490362,99.9742827 36.977387,103.99902 37,108.958878 C36.9790022,113.936502 32.9490362,117.962854 27.9580162,118 L27.9580162,118 Z M29.4667357,69 C23.6954004,68.9657833 18.9885047,65.0553026 19.0000211,58.6323381 L19.0000211,45.3676619 C19.0411509,39.8343317 22.6507032,35.0114056 29.4667357,35 L54.4999845,35 L79.5315882,35 C86.3558466,35.0114056 89.9670441,39.8343317 89.999948,45.3676619 L89.999948,58.6323381 C90.0180451,65.0553026 85.3111494,68.9674127 79.5315882,69 L54.4999845,69 L29.4667357,69 L29.4667357,69 Z M72.0000393,108.958878 C71.9855036,103.99902 76.0086442,99.9758978 80.9556052,100.000124 C85.946173,99.9742827 89.9741589,103.99902 90,108.958878 C89.9741589,113.934887 85.946173,117.961238 80.9556052,118 C76.0086442,117.961238 71.9855036,113.934887 72.0000393,108.958878 L72.0000393,108.958878 Z" id="Shape" sketch:type="MSShapeGroup"></path>
            </g>
        </g>
    </g>
</svg>