<?xml version="1.0" encoding="UTF-8" standalone="no"?>
<svg width="200px" height="200px" viewBox="0 0 200 200" version="1.1" xmlns="http://www.w3.org/2000/svg" xmlns:xlink="http://www.w3.org/1999/xlink" xmlns:sketch="http://www.bohemiancoding.com/sketch/ns">
    <title>icon_Car</title>
    <description>Created with Sketch (http://www.bohemiancoding.com/sketch)</description>
    <defs></defs>
    <g id="Page-1" stroke="none" stroke-width="1" fill="none" fill-rule="evenodd" sketch:type="MSPage">
        <g id="icon_Car" sketch:type="MSArtboardGroup" fill="#000000">
            <g id="car" sketch:type="MSLayerGroup" transform="translate(31.000000, 42.000000)">
                <path d="M126.385752,39.7944152 L114.991923,10.440903 C112.861053,4.82175849 108.204554,0.0402159897 99.3919551,0 L83.3235572,0 L55.8613308,0 L39.5135429,0 C30.7412541,0.0402159897 26.0847547,4.82175849 23.914965,10.440903 L12.5183564,39.7944152 C7.99390703,40.3768537 -0.0138819262,45.681204 1.80719473e-05,55.7296544 L1.80719473e-05,93.1041765 L11.1186266,93.1041765 L11.1186266,105.034458 C11.0908266,119.742416 31.9533339,119.567684 31.9477739,105.034458 L31.9477739,93.1041765 L69.500009,93.1041765 L106.957724,93.1041765 L106.957724,105.034458 C107.003594,119.567684 127.866101,119.742416 127.880001,105.034458 L127.880001,93.1041765 L139,93.1041765 L139,55.7296544 C138.96525,45.681204 130.951901,40.3768537 126.385752,39.7944152 L126.385752,39.7944152 Z M21.5007244,70.9999603 C16.2384515,71.0154007 11.9781241,66.5264382 12.0000845,61.0057723 C11.9781241,55.4472071 16.2384515,50.9540336 21.5007244,51.000355 C26.746527,50.9540336 31.0068544,55.4472071 30.9999917,61.0057723 C31.0068544,66.5264382 26.7451545,71.0139971 21.5007244,70.9999603 L21.5007244,70.9999603 Z M69,39 L68.9071136,39 L24,39 L32.5705043,15.7251541 C33.6047321,12.4213213 35.210142,10.0572515 39.0018485,10 L68.9071136,10 L69,10 L99.0009242,10 C102.734403,10.0572515 104.343972,12.4199249 105.428109,15.7251541 L114,39 L69,39 L69,39 Z M117.545075,70.9999603 C112.271244,71.0154007 108.028684,66.5264382 108,61.0057723 C108.028684,55.4472071 112.271244,50.9540336 117.545075,51.000355 C122.728756,50.9540336 126.967218,55.4472071 127,61.0057723 C126.967218,66.5264382 122.728756,71.0139971 117.545075,70.9999603 L117.545075,70.9999603 Z" id="Shape" sketch:type="MSShapeGroup"></path>
            </g>
        </g>
    </g>
</svg>