<?xml version="1.0" encoding="UTF-8" standalone="no"?>
<svg width="600px" height="100px" viewBox="0 0 600 100" version="1.1" xmlns="http://www.w3.org/2000/svg" xmlns:xlink="http://www.w3.org/1999/xlink" xmlns:sketch="http://www.bohemiancoding.com/sketch/ns">
    <title>logo_ixda</title>
    <description>Created with Sketch (http://www.bohemiancoding.com/sketch)</description>
    <defs></defs>
    <g id="Page-1" stroke="none" stroke-width="1" fill="none" fill-rule="evenodd" sketch:type="MSPage">
        <g id="logo_ixda" sketch:type="MSArtboardGroup">
            <g sketch:type="MSLayerGroup" transform="translate(185.000000, 15.000000)" id="Group">
                <g sketch:type="MSShapeGroup">
                    <path d="M51.4615302,9.11698917 C50.8461566,8.50289366 50.8461566,7.49568614 51.4615302,6.8793183 L57.8796496,0.460571631 C58.4961628,-0.153523877 59.5046919,-0.153523877 60.1200655,0.460571631 L66.5393244,6.8793183 C67.1535585,7.49625422 67.1535585,8.50289366 66.5393244,9.11698917 L60.1200655,15.5385762 C59.5046919,16.1538079 58.4961628,16.1538079 57.8796496,15.5385762 L51.4615302,9.11698917 L51.4615302,9.11698917 Z M89.6443089,60.3934771 L70.4724454,41.414231 C69.8646188,40.8112217 69.8646188,39.8284164 70.4724454,39.2254071 L89.4962919,20.3888621 C89.5435673,20.3394442 89.5677678,20.28725 89.6094151,20.2394979 C89.3358932,20.4849216 88.9830161,20.6448357 88.5862404,20.6448357 L80.4166009,20.6448357 C79.5690205,20.6448357 78.8773363,19.9579825 78.8773363,19.1245415 L78.8773363,11.0349994 C78.8773363,10.6335485 79.043363,10.2709655 79.3033777,10 C79.2735492,10.0249866 79.2425951,10.0349812 79.2133293,10.0655203 L60.0949321,28.9581464 C59.4899195,29.5583794 58.4937592,29.5583794 57.8876211,28.9581464 L38.7613446,10.0788465 C38.7450233,10.0616335 38.7247624,10.056081 38.7090039,10.0405338 C38.9487577,10.3098335 39.1063424,10.6513167 39.1080308,11.0355547 L39.1091564,19.1250967 C39.1091564,19.9585378 38.4191607,20.6453909 37.5743943,20.6453909 L29.4019408,20.6453909 C29.0017883,20.6453909 28.6444087,20.4827006 28.3680728,20.2333901 C28.3798916,20.2456057 28.3855196,20.2600424 28.3990269,20.2733686 L47.5117962,39.2259624 C48.1213111,39.8289717 48.1213111,40.8117769 47.5117962,41.4147862 L28.3613191,60.3701563 C28.1806596,60.5478386 28.0771039,60.7249656 28,60.9059795 C28.2414422,60.3740431 28.7777929,59.9964682 29.4019408,59.9964682 L37.5698919,59.9964682 C38.4163467,59.9964682 39.1063424,60.6822108 39.107468,61.5195387 L39.1085936,69.6046387 C39.1085936,70.0221921 38.9363761,70.4025433 38.6600401,70.6768403 C38.685929,70.6529643 38.7140692,70.6463012 38.7410837,70.6196488 L57.8876211,51.6831575 C58.4937592,51.081814 59.4899195,51.081814 60.0949321,51.6831575 L79.2617303,70.6440801 C79.4435155,70.822873 79.6230495,70.9255955 79.8048347,71 C79.2617303,70.7623499 78.8773363,70.2265267 78.8773363,69.6046387 L78.8773363,61.5195387 C78.8773363,60.6822108 79.5690205,59.9964682 80.4166009,59.9964682 L88.5851148,59.9964682 C89.2171419,59.9964682 89.7641858,60.3834825 90,60.9276345 C89.9245845,60.7466207 89.8238429,60.5722699 89.6443089,60.3934771 L89.6443089,60.3934771 Z" id="Shape" fill="#55C2C2"></path>
                    <path d="M131.705882,1 L107,1 L107,71 L131.009719,71 C141.524496,71 148.868113,65.8883962 153.032661,59.4002265 C156.205515,54.4873484 157,51.7319835 157,35.9997209 C157,21.3531926 156.703905,18.698307 153.231565,12.7984992 C148.669775,5.129698 141.027801,1 131.705882,1 L131.705882,1 Z M143.377163,54.8990041 C140.65298,58.9355978 136.471726,61 130.542653,61 L118,61 L118,11 L130.542653,11 C136.18153,11 139.681046,12.4725771 142.890366,16.9053974 C145.710912,20.7458338 146,23.7960523 146,36.3942706 C146,49.3875979 145.710912,51.3581129 143.377163,54.8990041 L143.377163,54.8990041 Z M198.443799,1 L189.561821,1 L164,71 L175.251967,71 L180.679281,55.3690838 L207.322967,55.3690838 L212.751967,71 L224,71 L198.443799,1 L198.443799,1 Z M184,47 L193.905539,16 L194.101032,16 L204,47 L184,47 L184,47 Z M38.9988991,10.5025193 L39,18.4974807 C39,19.3217261 38.3240254,20 37.4972226,20 L29.5038783,20 C28.677626,20 28,19.3211774 28,18.4974807 L28,10.5025193 C28,9.67772512 28.677626,9 29.5038783,9 L37.4933694,9 C38.3212731,9 38.9977981,9.67772512 38.9988991,10.5025193 L38.9988991,10.5025193 Z M90,10.5025193 L90,18.4974807 C90,19.3217261 89.325025,20 88.496997,20 L80.5041041,20 C79.6760761,20 79,19.3211774 79,18.4974807 L79,10.5025193 C79,9.67772512 79.6766266,9 80.5041041,9 L88.4958959,9 C89.3211712,9 89.9961461,9.67772512 90,10.5025193 L90,10.5025193 Z M38.9988991,61.505113 L39,69.494887 C39,70.3201477 38.3240254,71 37.4972226,71 L29.5038783,71 C28.677626,71 28,70.3201477 28,69.494887 L28,61.505113 C28,60.6771088 28.677626,60 29.5038783,60 L37.4933694,60 C38.3212731,60 38.9977981,60.6771088 38.9988991,61.505113 L38.9988991,61.505113 Z M90,61.505113 L90,69.494887 C90,70.3201477 89.325025,71 88.496997,71 L80.5041041,71 C79.6760761,71 79,70.3201477 79,69.494887 L79,61.505113 C79,60.6771088 79.6766266,60 80.5041041,60 L88.4958959,60 C89.3211712,60 89.9961461,60.6771088 90,61.505113 L90,61.505113 Z M0,1 L11,1 L11,71 L0,71 L0,1 L0,1 Z" id="Shape" fill="#515E66"></path>
                </g>
            </g>
        </g>
    </g>
</svg>