<?xml version="1.0" encoding="UTF-8" standalone="no"?>
<svg width="100px" height="100px" viewBox="0 0 100 100" version="1.1" xmlns="http://www.w3.org/2000/svg" xmlns:xlink="http://www.w3.org/1999/xlink" xmlns:sketch="http://www.bohemiancoding.com/sketch/ns">
    <title>logo_uxr_square</title>
    <description>Created with Sketch (http://www.bohemiancoding.com/sketch)</description>
    <defs></defs>
    <g id="Page-1" stroke="none" stroke-width="1" fill="none" fill-rule="evenodd" sketch:type="MSPage">
        <g id="logo_uxr_square" sketch:type="MSArtboardGroup">
            <g id="UX-Romandie" sketch:type="MSLayerGroup" transform="translate(13.500000, 13.500000)">
                <path d="M36.5607269,73.2387521 C16.3686565,73.2387521 0,56.8374267 0,36.6050566 C0,16.3726864 16.3686565,-0.027968237 36.5607269,-0.027968237 C56.752128,-0.027968237 73.1207844,16.3726864 73.1207844,36.6050566 C73.1207844,56.8374267 56.752128,73.2387521 36.5607269,73.2387521 Z" id="Fill-31" fill="#0076C7" sketch:type="MSShapeGroup"></path>
                <path d="M64.2823525,44.9372437 L64.2823525,45.8011068 C64.2823525,46.5046723 64.0213001,46.9755045 64.0213001,46.9755045 C63.7890304,47.3967048 63.4991953,47.5134068 63.0580836,47.5134068 C62.6163026,47.5134068 62.3284755,47.2920754 62.1932638,46.8500833 C62.0587214,46.408762 61.9911155,45.5482525 61.9911155,44.2705668 L61.9911155,42.3174851 C61.9911155,40.1799606 61.5995368,38.6567984 60.8150408,37.7473277 C60.0298755,36.8391983 58.6442895,36.249652 56.658283,35.9786888 L56.658283,35.8680231 C58.7667833,35.6963236 60.3364447,35.1617748 61.3659284,34.2643767 C62.3960814,33.36832 62.9108233,31.87601 62.9108233,29.7874467 C62.9108233,27.6988834 62.3224512,26.1750504 61.1457072,25.2172892 C60.6055295,24.7504812 59.6677489,24.3514141 58.331696,24.0187463 C56.9949737,23.6880907 54.7331887,23.5217568 51.5456716,23.5217568 L44.3546813,23.5217568 L44.3546813,24.2588573 L48.1794341,24.2588573 L42.625711,33.1778409 L37.6610294,24.2588573 L40.1617778,24.2588573 L40.1617778,23.5217568 L31.7967209,23.5217568 L29.1480429,23.5217568 L26.426404,23.5217568 L26.426404,24.2219688 L28.8173765,24.2219688 L28.8173765,40.8795019 C28.8173765,43.4355439 28.2778681,45.3389937 27.1988514,46.5918634 C26.1198347,47.8454038 24.5749399,48.4718387 22.5648362,48.4718387 C20.5540631,48.4718387 19.1624529,47.8702198 18.3900055,46.6656405 C17.617558,45.4624027 17.2313343,43.7306524 17.2313343,41.4697189 L17.2313343,24.2219688 L19.6223068,24.2219688 L19.6223068,23.5217568 L8.03626465,23.5217568 L8.03626465,24.2219688 L10.0590863,24.2219688 L10.0590863,40.2161785 C10.0590863,43.6803498 10.9600518,46.1257261 12.7626523,47.5502953 C14.5645834,48.9755352 17.175777,49.6884905 20.5969025,49.6884905 C24.0173587,49.6884905 26.4016375,48.9386467 27.7504083,47.4396296 C29.0991792,45.9412833 29.77323,43.6689479 29.77323,40.6219527 L29.77323,24.2950752 L37.4401389,37.7842162 L31.0035232,48.6187222 L28.5389205,48.6187222 L28.5389205,49.3189342 L36.1522803,49.3189342 L36.1522803,48.6187222 L32.2538974,48.6187222 L38.1021411,38.8895317 L43.5822339,48.6187222 L41.1551157,48.6187222 L41.1551157,49.3189342 L53.7338264,49.3189342 L53.7338264,48.6187222 L51.6005596,48.6187222 L43.2508981,34.2093792 L49.4666233,24.2588573 L51.2150052,24.2588573 C52.6367369,24.2588573 53.6722448,24.5351862 54.3221984,25.161621 C54.9721521,25.7880559 55.2967942,27.0724485 55.2967942,29.0127869 L55.2967942,30.0818845 C55.2967942,32.0228935 54.9601035,33.4233175 54.2860527,34.2831563 C53.6113326,35.1436659 52.5751553,35.5729146 51.1781901,35.5729146 L50.0007768,35.5729146 L50.0007768,36.2731266 L51.9506376,36.2731266 C52.9064911,36.2731266 53.562469,36.593051 53.9185712,37.2315585 C54.2733348,37.8707367 54.4513859,38.8774591 54.4513859,40.2537378 L54.4513859,42.94392 C54.4513859,45.5482525 54.8744247,47.3235983 55.7205023,48.2686162 C56.5665799,49.2149755 57.9943359,49.6884905 60.0051089,49.6884905 C62.015882,49.6884905 63.2301104,49.3578349 63.9476699,48.6898165 C64.5400581,48.1391709 65.0849214,47.1753734 65.0849214,46.083472 L65.0849214,44.9372437 L64.2823525,44.9372437 Z" id="Fill-32" fill="#FEFEFE" sketch:type="MSShapeGroup"></path>
            </g>
        </g>
    </g>
</svg>