<?xml version="1.0" encoding="utf-8"?>
<!-- Generator: Adobe Illustrator 16.0.0, SVG Export Plug-In . SVG Version: 6.00 Build 0)  -->
<!DOCTYPE svg PUBLIC "-//W3C//DTD SVG 1.1//EN" "http://www.w3.org/Graphics/SVG/1.1/DTD/svg11.dtd">
<svg version="1.1" id="Layer_1" xmlns="http://www.w3.org/2000/svg" xmlns:xlink="http://www.w3.org/1999/xlink" x="0px" y="0px"
	 width="400px" height="120px" viewBox="0 0 400 120" enable-background="new 0 0 400 120" xml:space="preserve">
<path fill="#FFFFFF" d="M337.896,93.98h6.054v2.783h-11.172v-2.471c6.076-4.496,7.855-6.031,7.855-7.857
	c0-1.291-1.179-1.936-2.402-1.936c-1.692,0-2.983,0.668-3.984,1.713l-1.804-2.092c1.448-1.668,3.651-2.426,5.721-2.426
	c3.16,0,5.675,1.781,5.675,4.74C343.838,88.973,341.746,91.176,337.896,93.98 M357.602,89.352c0,3.828-1.914,7.68-6.143,7.68
	c-4.251,0-6.143-3.852-6.143-7.68s1.892-7.656,6.143-7.656C355.688,81.695,357.602,85.523,357.602,89.352 M354.374,89.352
	c0-2.736-0.801-4.852-2.915-4.852c-2.136,0-2.938,2.115-2.938,4.852c0,2.738,0.802,4.875,2.938,4.875
	C353.573,94.227,354.374,92.09,354.374,89.352 M359.058,86.615l1.803,1.891l2.47-2.514v10.771h3.16V81.918h-2.759L359.058,86.615z
	 M380.865,90.91v2.781h-1.915v3.072h-3.16v-3.072h-7.1v-2.492l5.897-9.281h4.362v8.992H380.865z M375.79,84.723l-4.006,6.188h4.006
	V84.723z"/>
<path fill="#FFFFFF" d="M61.504,114.652c-11.403,0-21.467-3.826-28.34-10.777c-9.803-9.783-12.77-25.016-8.577-44.049
	c3.935-18.546,12.976-36.902,23.033-46.76C54.323,6.294,61.69,3,70.138,3c2.683,0,5.468,0.318,8.512,0.973
	c10.415,2.249,20.233,11.806,29.728,21.048l1.139,1.107l1.362,1.413c9.121,9.452,17.736,18.38,21.654,28.318
	c4.201,11.406,1.238,22.531-8.563,32.18c-9.125,9.186-25.21,17.672-45.287,23.891C72.86,113.736,67.08,114.652,61.504,114.652
	 M70.138,3.773c-8.231,0-15.418,3.219-21.973,9.841c-9.96,9.763-18.917,27.965-22.823,46.375
	c-4.134,18.765-1.239,33.751,8.369,43.341c6.729,6.805,16.598,10.551,27.793,10.551c5.498,0,11.201-0.906,16.95-2.689
	c19.959-6.182,35.93-14.6,44.971-23.701c9.572-9.422,12.471-20.264,8.386-31.355c-3.858-9.788-12.422-18.662-21.488-28.058
	l-1.354-1.404l-1.13-1.098C98.422,16.409,88.685,6.931,78.487,4.728C75.497,4.085,72.766,3.773,70.138,3.773"/>
<path fill="#FFFFFF" d="M83.104,116.387c-2.898,0-5.814-0.449-8.667-1.334c-13.746-4.23-28.029-9.086-38.316-17.762
	c-5.118-4.467-9.091-10.17-11.822-16.965C21.729,74.088,20,66.043,20,60.319c0-6.29,1.486-9.643,4.414-13.982
	C27.098,42.54,30.991,37.771,36,32.142C49.968,16.194,62.597,7.493,74.598,5.548c7.233-1.155,13.22-2.039,18.96-2.039
	c8.519,0,14.845,2.052,19.909,6.457c5.065,4.404,9.051,11.485,11.847,21.048c2.587,8.666,4.26,20.171,4.26,29.305
	c0,10.455-1.726,16.392-4.319,22.091c-2.775,5.928-6.704,11.76-11.681,17.342C106.976,107.334,96.324,116.387,83.104,116.387
	 M93.558,5.873c-5.566,0-11.459,0.87-18.584,2.009C63.54,9.734,51.37,18.182,37.771,33.706c-4.957,5.571-8.794,10.27-11.412,13.975
	c-2.759,4.087-3.996,6.89-3.996,12.638c0,4.533,1.275,12.201,4.124,19.117c2.595,6.455,6.353,11.855,11.172,16.062
	c9.932,8.375,23.959,13.139,37.475,17.295c2.628,0.816,5.309,1.23,7.969,1.23c6.806,0,17.309-2.748,28.696-15.834
	c4.766-5.344,8.674-11.139,11.31-16.77c2.458-5.406,4.1-11.07,4.1-21.101c0-8.924-1.634-20.164-4.163-28.635
	c-2.631-8.999-6.48-15.89-11.131-19.934C107.307,7.74,101.474,5.873,93.558,5.873"/>
<path fill="#FFFFFF" d="M147.662,70.807h12.36v5.477h-18.579V47.054h6.219V70.807z M182.559,47.054l11.261,29.229h-7.097
	l-1.799-4.951h-12.531l-1.841,4.951h-7.097l11.304-29.229H182.559z M183.215,65.855l-4.556-12.579l-4.557,12.579H183.215z
	 M217.326,64.41c0,4.074-2.322,6.879-6.836,6.879s-6.88-2.805-6.88-6.879V47.054h-6.308v17.573c0,7.186,4.292,12.182,13.188,12.182
	s13.191-4.949,13.191-12.225v-17.53h-6.355V64.41z M236.934,54.986c0-1.752,1.487-2.936,4.161-2.936c2.979,0,6.137,1.009,8.503,3.2
	l3.461-4.556c-2.892-2.673-6.748-4.075-11.394-4.075c-6.88,0-11.087,4.028-11.087,8.895c0,10.998,16.828,7.447,16.828,12.621
	c0,1.662-1.667,3.24-5.085,3.24c-4.032,0-7.229-1.795-9.288-3.943l-3.375,4.734c2.715,2.76,6.747,4.643,12.356,4.643
	c7.889,0,11.699-4.029,11.699-9.377C253.714,56.52,236.934,59.632,236.934,54.986 M275.684,47.054l11.265,29.229h-7.101
	l-1.799-4.951h-12.53l-1.842,4.951h-7.098l11.304-29.229H275.684z M276.34,65.855l-4.557-12.579l-4.556,12.579H276.34z
	 M311.814,65.416l-13.541-18.362h-6.398v29.229h6.221V57.223l13.937,19.061h6.001V47.054h-6.219V65.416z M345.969,65.416
	l-13.541-18.362h-6.397v29.229h6.219V57.223l13.938,19.061h6.002V47.054h-6.22V65.416z M380.865,52.535v-5.481h-20.681v29.229
	h20.681v-5.477h-14.462v-6.619h14.155v-5.477h-14.155v-6.176H380.865z M64.021,65.064c0,5.512-3.141,9.307-9.248,9.307
	s-9.307-3.795-9.307-9.307V41.588h-8.538v23.773c0,9.723,5.81,16.48,17.845,16.48c12.035,0,17.845-6.699,17.845-16.541V41.588
	h-8.597V65.064z M115.42,41.588h-10.136L96.33,55.105l-9.07-13.517H77.241l13.458,19.267L76.351,81.129h10.02l9.959-14.465
	l9.901,14.465h10.078l-14.346-20.333L115.42,41.588z"/>
</svg>
