<?xml version="1.0" encoding="UTF-8" standalone="no"?>
<svg width="100px" height="100px" viewBox="0 0 100 100" version="1.1" xmlns="http://www.w3.org/2000/svg" xmlns:xlink="http://www.w3.org/1999/xlink" xmlns:sketch="http://www.bohemiancoding.com/sketch/ns">
    <title>logo_ixda_square</title>
    <description>Created with Sketch (http://www.bohemiancoding.com/sketch)</description>
    <defs></defs>
    <g id="Page-1" stroke="none" stroke-width="1" fill="none" fill-rule="evenodd" sketch:type="MSPage">
        <g id="logo_ixda_square" sketch:type="MSArtboardGroup">
            <g id="logo_ixda" sketch:type="MSLayerGroup" transform="translate(19.000000, 15.000000)">
                <g id="Group" sketch:type="MSShapeGroup">
                    <path d="M23.4615302,9.11698917 C22.8461566,8.50289366 22.8461566,7.49568614 23.4615302,6.8793183 L29.8796496,0.460571631 C30.4961628,-0.153523877 31.5046919,-0.153523877 32.1200655,0.460571631 L38.5393244,6.8793183 C39.1535585,7.49625422 39.1535585,8.50289366 38.5393244,9.11698917 L32.1200655,15.5385762 C31.5046919,16.1538079 30.4961628,16.1538079 29.8796496,15.5385762 L23.4615302,9.11698917 L23.4615302,9.11698917 Z M61.6443089,60.3934771 L42.4724454,41.414231 C41.8646188,40.8112217 41.8646188,39.8284164 42.4724454,39.2254071 L61.4962919,20.3888621 C61.5435673,20.3394442 61.5677678,20.28725 61.6094151,20.2394979 C61.3358932,20.4849216 60.9830161,20.6448357 60.5862404,20.6448357 L52.4166009,20.6448357 C51.5690205,20.6448357 50.8773363,19.9579825 50.8773363,19.1245415 L50.8773363,11.0349994 C50.8773363,10.6335485 51.043363,10.2709655 51.3033777,10 C51.2735492,10.0249866 51.2425951,10.0349812 51.2133293,10.0655203 L32.0949321,28.9581464 C31.4899195,29.5583794 30.4937592,29.5583794 29.8876211,28.9581464 L10.7613446,10.0788465 C10.7450233,10.0616335 10.7247624,10.056081 10.7090039,10.0405338 C10.9487577,10.3098335 11.1063424,10.6513167 11.1080308,11.0355547 L11.1091564,19.1250967 C11.1091564,19.9585378 10.4191607,20.6453909 9.57439431,20.6453909 L1.40194076,20.6453909 C1.00178826,20.6453909 0.64440874,20.4827006 0.368072765,20.2333901 C0.379891615,20.2456057 0.385519639,20.2600424 0.399026897,20.2733686 L19.5117962,39.2259624 C20.1213111,39.8289717 20.1213111,40.8117769 19.5117962,41.4147862 L0.361319136,60.3701563 C0.180659568,60.5478386 0.0771039278,60.7249656 0,60.9059795 C0.241442227,60.3740431 0.777792907,59.9964682 1.40194076,59.9964682 L9.56989189,59.9964682 C10.4163467,59.9964682 11.1063424,60.6822108 11.107468,61.5195387 L11.1085936,69.6046387 C11.1085936,70.0221921 10.9363761,70.4025433 10.6600401,70.6768403 C10.685929,70.6529643 10.7140692,70.6463012 10.7410837,70.6196488 L29.8876211,51.6831575 C30.4937592,51.081814 31.4899195,51.081814 32.0949321,51.6831575 L51.2617303,70.6440801 C51.4435155,70.822873 51.6230495,70.9255955 51.8048347,71 C51.2617303,70.7623499 50.8773363,70.2265267 50.8773363,69.6046387 L50.8773363,61.5195387 C50.8773363,60.6822108 51.5690205,59.9964682 52.4166009,59.9964682 L60.5851148,59.9964682 C61.2171419,59.9964682 61.7641858,60.3834825 62,60.9276345 C61.9245845,60.7466207 61.8238429,60.5722699 61.6443089,60.3934771 L61.6443089,60.3934771 Z" id="Shape" fill="#55C2C2"></path>
                    <path d="M10.9988991,10.5025193 L11,18.4974807 C11,19.3217261 10.3240254,20 9.49722264,20 L1.5038783,20 C0.677625982,20 0,19.3211774 0,18.4974807 L0,10.5025193 C0,9.67772512 0.677625982,9 1.5038783,9 L9.49336936,9 C10.3212731,9 10.9977981,9.67772512 10.9988991,10.5025193 L10.9988991,10.5025193 Z M62,10.5025193 L62,18.4974807 C62,19.3217261 61.325025,20 60.496997,20 L52.5041041,20 C51.6760761,20 51,19.3211774 51,18.4974807 L51,10.5025193 C51,9.67772512 51.6766266,9 52.5041041,9 L60.4958959,9 C61.3211712,9 61.9961461,9.67772512 62,10.5025193 L62,10.5025193 Z M10.9988991,61.505113 L11,69.494887 C11,70.3201477 10.3240254,71 9.49722264,71 L1.5038783,71 C0.677625982,71 0,70.3201477 0,69.494887 L0,61.505113 C0,60.6771088 0.677625982,60 1.5038783,60 L9.49336936,60 C10.3212731,60 10.9977981,60.6771088 10.9988991,61.505113 L10.9988991,61.505113 Z M62,61.505113 L62,69.494887 C62,70.3201477 61.325025,71 60.496997,71 L52.5041041,71 C51.6760761,71 51,70.3201477 51,69.494887 L51,61.505113 C51,60.6771088 51.6766266,60 52.5041041,60 L60.4958959,60 C61.3211712,60 61.9961461,60.6771088 62,61.505113 L62,61.505113 Z" id="Shape" fill="#515E66"></path>
                </g>
            </g>
        </g>
    </g>
</svg>