<?xml version="1.0" encoding="utf-8"?>
<!-- Generator: Adobe Illustrator 16.0.0, SVG Export Plug-In . SVG Version: 6.00 Build 0)  -->
<!DOCTYPE svg PUBLIC "-//W3C//DTD SVG 1.1//EN" "http://www.w3.org/Graphics/SVG/1.1/DTD/svg11.dtd">
<svg version="1.1" id="logo_x5F_ratio" xmlns="http://www.w3.org/2000/svg" xmlns:xlink="http://www.w3.org/1999/xlink" x="0px"
	 y="0px" width="160px" height="160px" viewBox="0 -55 160 160" enable-background="new 0 -55 160 160" xml:space="preserve">
<path id="logo_x5F_ratio_1_" fill="#323C4F" d="M76.275,23.684c0-7.269-7.347-8.628-13.441-8.628
	c-6.876,0-13.917,2.353-14.391,10.154h8.4c0.303-3.282,2.373-4.575,5.577-4.575c2.959,0,5.444,0.527,5.444,4.096
	c0,3.405-4.793,3.237-9.95,4C52.709,29.436,47.5,31.07,47.5,37.941c-0.001,6.211,4.618,9.09,10.414,9.09
	c3.732,0,7.64-0.992,10.307-3.752c0.055,0.988,0.291,1.99,0.587,2.93h8.53c-0.776-1.23-1.063-3.979-1.063-6.74V23.684z
	 M67.864,34.479c0,1.816-0.24,6.977-6.823,6.977c-2.708,0-5.135-0.762-5.135-3.863c0-3.053,2.354-3.936,4.971-4.467
	c2.61-0.471,5.562-0.525,6.988-1.758L67.864,34.479L67.864,34.479z M93.655,15.872h6.142v5.58h-6.142v15.021
	c0,2.807,0.692,3.52,3.545,3.52c0.89,0,1.721-0.062,2.597-0.229v6.506c-1.414,0.232-3.245,0.293-4.91,0.293
	c-5.145,0-9.65-1.172-9.65-7.213V21.453h-5.09v-5.58h5.09V6.787h8.418L93.655,15.872L93.655,15.872z M134.64,15.055
	c-9.6,0-15.813,6.335-15.813,16.015c0,9.625,6.216,15.961,15.813,15.961c9.64,0,15.86-6.338,15.86-15.961
	C150.5,21.391,144.279,15.055,134.64,15.055z M134.64,40.756c-5.694,0-7.406-4.871-7.406-9.686c0-4.863,1.712-9.739,7.406-9.739
	c5.736,0,7.456,4.875,7.456,9.739C142.096,35.885,140.376,40.756,134.64,40.756z M105.557,15.872h8.407v30.337h-8.407V15.872z
	 M114.409,7.703c0,2.604-2.134,4.718-4.771,4.718c-2.632,0-4.762-2.114-4.762-4.718c0-2.617,2.13-4.735,4.762-4.735
	C112.275,2.968,114.409,5.086,114.409,7.703z M43.638,15.055c0.591,0,1.299,0.12,1.828,0.289v7.749
	c-0.771-0.166-2.005-0.289-3.023-0.289c-6.142,0-8.287,4.406-8.287,9.736v13.67h-8.403V15.872h7.995v5.642h0.118
	C35.413,17.706,39.55,15.055,43.638,15.055z M19.037,20.922c0,2.609-2.132,4.723-4.769,4.723c-2.627,0-4.768-2.114-4.768-4.723
	c0-2.619,2.141-4.721,4.768-4.721C16.904,16.201,19.037,18.303,19.037,20.922z M19.037,41.988c0,2.605-2.132,4.727-4.769,4.727
	c-2.627,0-4.768-2.121-4.768-4.727s2.141-4.723,4.768-4.723C16.904,37.266,19.037,39.383,19.037,41.988z"/>
</svg>
