<?xml version="1.0" encoding="utf-8"?>
<!-- Generator: Adobe Illustrator 17.0.1, SVG Export Plug-In . SVG Version: 6.00 Build 0)  -->
<!DOCTYPE svg PUBLIC "-//W3C//DTD SVG 1.1//EN" "http://www.w3.org/Graphics/SVG/1.1/DTD/svg11.dtd">
<svg version="1.1" id="logo_x5F_uxls" xmlns="http://www.w3.org/2000/svg" xmlns:xlink="http://www.w3.org/1999/xlink" x="0px"
	 y="0px" width="460px" height="145px" viewBox="0 0 460 145" enable-background="new 0 0 460 145" xml:space="preserve">
<path id="year" opacity="0.5" fill="#FFFFFF" enable-background="new    " d="M405.226,116.348h7.717v3.558h-14.242v-3.159
	c7.745-5.749,10.015-7.713,10.015-10.047c0-1.651-1.504-2.476-3.064-2.476c-2.157,0-3.802,0.854-5.078,2.192l-2.299-2.675
	c1.845-2.134,4.653-3.102,7.292-3.102c4.028,0,7.234,2.277,7.234,6.062C412.801,109.944,410.135,112.761,405.226,116.348z
	 M430.346,110.428c0,4.895-2.44,9.82-7.83,9.82c-5.419,0-7.83-4.924-7.83-9.82c0-4.895,2.411-9.791,7.83-9.791
	C427.906,100.637,430.346,105.533,430.346,110.428z M426.232,110.428c0-3.5-1.022-6.205-3.717-6.205
	c-2.723,0-3.745,2.705-3.745,6.205c0,3.501,1.022,6.233,3.745,6.233C425.211,116.661,426.232,113.929,426.232,110.428z
	 M432.201,106.928l2.298,2.419l3.149-3.217v13.776h4.029v-18.984h-3.517L432.201,106.928z M460,112.42v3.558h-2.44v3.928h-4.029
	v-3.928h-9.05v-3.187l7.518-11.869h5.56v11.499L460,112.42L460,112.42z M453.531,104.508l-5.106,7.913h5.106V104.508z"/>
<path id="circle_x5F_minor" opacity="0.5" fill="#FFFFFF" enable-background="new    " d="M52.905,142.783
	c-14.535,0-27.364-4.895-36.125-13.783C4.284,116.489,0.502,97.009,5.847,72.67c5.016-23.717,16.541-47.191,29.361-59.797
	C43.752,4.212,53.143,0,63.912,0c3.42,0,6.97,0.407,10.85,1.244c13.276,2.877,25.792,15.098,37.895,26.917l1.451,1.416l1.737,1.806
	c11.627,12.087,22.608,23.505,27.603,36.214c5.354,14.587,1.578,28.813-10.916,41.151c-11.632,11.749-32.135,22.601-57.728,30.552
	C67.381,141.611,60.013,142.783,52.905,142.783z M63.912,0.988c-10.492,0-19.654,4.117-28.009,12.584
	C23.207,26.058,11.789,49.335,6.81,72.879c-5.27,23.997-1.58,43.161,10.668,55.424c8.577,8.702,21.158,13.492,35.427,13.492
	c7.009,0,14.279-1.157,21.607-3.438c25.442-7.905,45.8-18.669,57.324-30.309C144.038,96,147.733,82.136,142.526,67.95
	c-4.918-12.516-15.834-23.865-27.391-35.88l-1.726-1.796l-1.44-1.405C99.966,17.147,87.554,5.026,74.555,2.21
	C70.743,1.388,67.262,0.988,63.912,0.988z"/>
<path id="circle_x5F_major" opacity="0.75" fill="#FFFFFF" enable-background="new    " d="M80.439,145
	c-3.695,0-7.412-0.574-11.048-1.706c-17.522-5.409-35.73-11.619-48.842-22.712c-6.524-5.714-11.588-13.008-15.07-21.695
	C2.204,90.908,0,80.621,0,73.3c0-8.044,1.895-12.332,5.628-17.88c3.42-4.856,8.382-10.954,14.767-18.154
	C38.202,16.872,54.298,5.744,69.597,3.257C78.817,1.78,86.448,0.65,93.765,0.65c10.859,0,18.924,2.624,25.379,8.257
	c6.456,5.631,11.537,14.687,15.101,26.917c3.298,11.081,5.43,25.795,5.43,37.475c0,13.37-2.201,20.963-5.505,28.252
	c-3.538,7.581-8.546,15.037-14.891,22.177C110.869,133.426,97.291,145,80.439,145z M93.765,3.673c-7.095,0-14.607,1.113-23.69,2.569
	c-14.574,2.37-30.087,13.172-47.421,33.025c-6.318,7.124-11.21,13.134-14.547,17.871C4.59,62.365,3.013,65.95,3.013,73.3
	c0,5.795,1.625,15.601,5.256,24.447c3.308,8.253,8.098,15.16,14.242,20.541c12.66,10.71,30.541,16.8,47.77,22.117
	c3.35,1.043,6.767,1.571,10.159,1.571c8.676,0,22.064-3.512,36.579-20.246c6.076-6.836,11.057-14.247,14.416-21.446
	c3.134-6.915,5.227-14.159,5.227-26.985c0-11.413-2.083-25.786-5.307-36.619c-3.354-11.509-8.26-20.321-14.189-25.493
	C111.291,6.061,103.855,3.673,93.765,3.673z"/>
<path id="name" fill="#FFFFFF" d="M162.733,86.712h15.755v7.004h-23.683v-37.38h7.928V86.712z M207.216,56.337l14.355,37.38h-9.047
	l-2.292-6.333h-15.974l-2.347,6.333h-9.047l14.409-37.38H207.216z M208.053,80.379l-5.808-16.084l-5.808,16.084H208.053z
	 M251.535,78.531c0,5.211-2.961,8.797-8.715,8.797s-8.769-3.586-8.769-8.797V56.337h-8.041V78.81c0,9.19,5.472,15.578,16.811,15.578
	s16.815-6.329,16.815-15.633V56.337h-8.101L251.535,78.531L251.535,78.531z M276.529,66.48c0-2.24,1.897-3.755,5.303-3.755
	c3.798,0,7.823,1.291,10.839,4.093l4.412-5.827c-3.684-3.418-8.601-5.211-14.523-5.211c-8.769,0-14.132,5.152-14.132,11.375
	c0,14.063,21.45,9.523,21.45,16.139c0,2.126-2.124,4.143-6.481,4.143c-5.14,0-9.215-2.295-11.839-5.042l-4.303,6.055
	c3.461,3.527,8.601,5.936,15.751,5.936c10.056,0,14.914-5.152,14.914-11.991C297.919,68.442,276.529,72.421,276.529,66.48z
	 M325.924,56.337l14.359,37.38h-9.051l-2.292-6.333h-15.974l-2.347,6.333h-9.047l14.409-37.38H325.924z M326.761,80.379
	l-5.808-16.084l-5.808,16.084H326.761z M371.98,79.818l-17.261-23.481h-8.155v37.38h7.928V69.341l17.766,24.376h7.65v-37.38h-7.928
	V79.818z M415.517,79.818l-17.261-23.481h-8.155v37.38h7.928V69.341l17.766,24.376h7.65v-37.38h-7.928V79.818z M460,63.345v-7.009
	h-26.362v37.38H460v-7.004h-18.434v-8.464h18.043v-7.004h-18.043v-7.899C441.566,63.345,460,63.345,460,63.345z M56.114,79.368
	c0,7.05-4.005,11.902-11.789,11.902s-11.864-4.852-11.864-11.902V49.346H21.577v30.402c0,12.433,7.406,21.075,22.747,21.075
	s22.747-8.567,22.747-21.152V49.346H56.114V79.368z M121.634,49.346h-12.921L97.3,66.632L85.738,49.346H72.966l17.155,24.639
	L71.832,99.914h12.772L97.3,81.415l12.621,18.499h12.846L104.48,73.91L121.634,49.346z"/>
</svg>
