<?xml version="1.0" encoding="utf-8"?>
<!-- Generator: Adobe Illustrator 17.1.0, SVG Export Plug-In . SVG Version: 6.00 Build 0)  -->
<!DOCTYPE svg PUBLIC "-//W3C//DTD SVG 1.1//EN" "http://www.w3.org/Graphics/SVG/1.1/DTD/svg11.dtd">
<svg version="1.1" id="logo_x5F_uxr" xmlns="http://www.w3.org/2000/svg" xmlns:xlink="http://www.w3.org/1999/xlink" x="0px"
	 y="0px" viewBox="0 0 150 150" enable-background="new 0 0 150 150" xml:space="preserve">
<path id="logo_x5F_ratio_1_" fill="#323C4F" d="M71.8,68.6c0-6.2-6.3-7.3-11.4-7.3c-5.9,0-11.8,2-12.2,8.6h7.1
	c0.3-2.8,2-3.9,4.7-3.9c2.5,0,4.6,0.4,4.6,3.5c0,2.9-4.1,2.8-8.5,3.4c-4.4,0.6-8.9,2-8.9,7.8c0,5.3,3.9,7.7,8.9,7.7
	c3.2,0,6.5-0.8,8.8-3.2c0,0.8,0.2,1.7,0.5,2.5h7.3c-0.7-1-0.9-3.4-0.9-5.7C71.8,82,71.8,68.6,71.8,68.6z M64.7,77.8
	c0,1.5-0.2,5.9-5.8,5.9c-2.3,0-4.4-0.6-4.4-3.3c0-2.6,2-3.3,4.2-3.8c2.2-0.4,4.7-0.4,5.9-1.5L64.7,77.8L64.7,77.8z M86.6,61.9h5.2
	v4.7h-5.2v12.8c0,2.4,0.6,3,3,3c0.8,0,1.5-0.1,2.2-0.2v5.5c-1.2,0.2-2.8,0.2-4.2,0.2c-4.4,0-8.2-1-8.2-6.1V66.7h-4.3v-4.7h4.3v-7.7
	h7.2L86.6,61.9L86.6,61.9z M121.5,61.2c-8.2,0-13.5,5.4-13.5,13.6c0,8.2,5.3,13.6,13.5,13.6c8.2,0,13.5-5.4,13.5-13.6
	C135,66.6,129.7,61.2,121.5,61.2z M121.5,83.1c-4.8,0-6.3-4.1-6.3-8.2c0-4.1,1.5-8.3,6.3-8.3c4.9,0,6.3,4.1,6.3,8.3
	C127.8,79,126.4,83.1,121.5,83.1z M96.8,61.9h7.2v25.8h-7.2V61.9z M104.3,55c0,2.2-1.8,4-4.1,4c-2.2,0-4.1-1.8-4.1-4
	c0-2.2,1.8-4,4.1-4C102.5,50.9,104.3,52.8,104.3,55z M44.1,61.2c0.5,0,1.1,0.1,1.6,0.2v6.6c-0.7-0.1-1.7-0.2-2.6-0.2
	c-5.2,0-7.1,3.7-7.1,8.3v11.6h-7.2V61.9h6.8v4.8h0.1C37.1,63.5,40.6,61.2,44.1,61.2z M23.1,66.2c0,2.2-1.8,4-4.1,4
	c-2.2,0-4.1-1.8-4.1-4c0-2.2,1.8-4,4.1-4C21.3,62.2,23.1,64,23.1,66.2z M23.1,84.2c0,2.2-1.8,4-4.1,4c-2.2,0-4.1-1.8-4.1-4
	s1.8-4,4.1-4C21.3,80.1,23.1,81.9,23.1,84.2z"/>
</svg>
