<?xml version="1.0" encoding="UTF-8" standalone="no"?>
<svg width="600px" height="100px" viewBox="0 0 600 100" version="1.1" xmlns="http://www.w3.org/2000/svg" xmlns:xlink="http://www.w3.org/1999/xlink" xmlns:sketch="http://www.bohemiancoding.com/sketch/ns">
    <title>logo_uxr_long</title>
    <description>Created with Sketch (http://www.bohemiancoding.com/sketch)</description>
    <defs>
        <path id="path-1" d="M0,78.4720318 L284.480207,78.4720318 L284.480207,0 L0,0"></path>
    </defs>
    <g id="Page-1" stroke="none" stroke-width="1" fill="none" fill-rule="evenodd" sketch:type="MSPage">
        <g id="logo_uxr_long" sketch:type="MSArtboardGroup">
            <g id="UX-Romandie" sketch:type="MSLayerGroup" transform="translate(151.425214, 10.750000)">
                <mask id="mask-2" sketch:name="Clip 2" fill="white">
                    <use xlink:href="#path-1"></use>
                </mask>
                <g id="Clip-2"></g>
                <path d="M82.6731612,69.666665 C82.6731612,70.4446783 82.9020841,71.0302003 83.3626074,71.4265847 C83.8224613,71.8222984 84.4242206,72.0208259 85.1665466,72.0208259 C86.0373907,72.0208259 86.8653954,71.7143155 87.6478834,71.0992826 C88.4310406,70.4849203 88.8219499,69.9027518 88.8219499,69.3514354 L88.8219499,67.3145161 L87.4899132,67.3145161 C86.7643213,67.3145161 86.155199,67.3386613 85.6625462,67.3882932 C85.1698934,67.4365837 84.6732244,67.5365182 84.1732086,67.6887673 C83.6738622,67.84437 83.297679,68.0878345 83.0480057,68.4171488 C82.7983325,68.7491458 82.6731612,69.1669926 82.6731612,69.666665 M81.8257449,69.666665 C81.8257449,68.4540373 82.3056797,67.617673 83.2662188,67.157572 C84.2254191,66.6961297 85.6277392,66.4660792 87.465816,66.4660792 L88.8219499,66.4660792 L88.8219499,65.7866589 C88.8219499,64.7531085 88.5562119,63.8570518 88.0227279,63.1058665 C87.4899132,62.3533399 86.6913605,61.9770765 85.6277392,61.9770765 C85.1906437,61.9770765 84.782331,62.0307326 84.4041396,62.1360327 C84.0239402,62.2413328 83.7294195,62.3493157 83.5199082,62.4633349 C83.3103969,62.5773541 83.1738464,62.6323515 83.108918,62.6323515 C82.9803999,62.6323515 82.8739708,62.5773541 82.7943163,62.4633349 C82.7126538,62.3493157 82.6731612,62.2460277 82.6731612,62.1481053 C82.6731612,61.9059822 82.9911097,61.6732489 83.6290147,61.4579539 C84.2662504,61.2386346 84.9490029,61.1286396 85.6752641,61.1286396 C87.0628582,61.1286396 88.0762771,61.5706317 88.7141821,62.4512622 C89.3507484,63.3325635 89.6686969,64.4452567 89.6686969,65.7866589 L89.6686969,72.287765 C89.6686969,72.5788492 89.531477,72.72305 89.2577067,72.72305 C89.1278498,72.72305 89.0227595,72.68482 88.943105,72.6029945 C88.8621118,72.5218397 88.8219499,72.4185517 88.8219499,72.287765 L88.8219499,71.0268468 C87.7563205,72.2549006 86.5461083,72.8699335 85.1906437,72.8699335 C84.1892734,72.8699335 83.3793415,72.5982996 82.7575013,72.0563731 C82.1369997,71.5144466 81.8257449,70.718995 81.8257449,69.666665" id="Fill-1" fill="#C5C5C4" sketch:type="MSShapeGroup" mask="url(#mask-2)"></path>
                <path d="M92.8661205,72.2876979 L92.8661205,61.6852545 C92.8661205,61.4129498 93.0013323,61.2747854 93.2764414,61.2747854 C93.5669459,61.2747854 93.7128675,61.4129498 93.7128675,61.6852545 L93.7128675,62.9723299 C94.4063299,61.7449469 95.4866853,61.1285726 96.9559419,61.1285726 C98.14942,61.1285726 99.1748875,61.558492 100.030336,62.4149773 C100.885785,63.2728041 101.314179,64.2989768 101.314179,65.4955076 L101.314179,72.2876979 C101.314179,72.5787822 101.167588,72.7229829 100.877083,72.7229829 C100.601974,72.7229829 100.466093,72.5787822 100.466093,72.2876979 L100.466093,65.4955076 C100.466093,64.5900611 100.123378,63.7785127 99.437948,63.057509 C98.75051,62.3391881 97.9479411,61.9770095 97.0289027,61.9770095 C96.1567198,61.9770095 95.3862805,62.3029702 94.7162459,62.947514 C94.0482195,63.5947406 93.7128675,64.4451896 93.7128675,65.4955076 L93.7128675,72.2876979 C93.7128675,72.4017171 93.6673507,72.5023222 93.5789945,72.5908548 C93.4892995,72.6787166 93.3888948,72.7229829 93.2764414,72.7229829 C93.1633187,72.7229829 93.0669301,72.6787166 92.9859369,72.5908548 C92.9042744,72.5023222 92.8661205,72.4017171 92.8661205,72.2876979 L92.8661205,72.2876979 Z" id="Fill-3" fill="#C5C5C4" sketch:type="MSShapeGroup" mask="url(#mask-2)"></path>
                <path d="M109.712503,72.2876979 L109.712503,55.4041384 C109.712503,55.1298217 109.859094,54.9929986 110.149598,54.9929986 C110.439434,54.9929986 110.584686,55.1298217 110.584686,55.4041384 L110.584686,72.2876979 C110.584686,72.5787822 110.439434,72.7229829 110.149598,72.7229829 C109.859094,72.7229829 109.712503,72.5787822 109.712503,72.2876979 L109.712503,72.2876979 Z" id="Fill-4" fill="#C5C5C4" sketch:type="MSShapeGroup" mask="url(#mask-2)"></path>
                <path d="M113.247287,72.4569829 C113.247287,72.3771694 113.271384,72.2953439 113.318909,72.214189 L116.683138,66.9498559 L113.318909,61.7834451 C113.271384,61.7022903 113.247287,61.6305253 113.247287,61.5654673 C113.247287,61.4360219 113.291465,61.3320633 113.379152,61.2509084 C113.468847,61.1690829 113.569921,61.1288408 113.681705,61.1288408 C113.843022,61.1288408 113.965516,61.1932281 114.04517,61.3240149 L117.217292,66.1751961 L120.412841,61.3240149 C120.493165,61.1932281 120.606288,61.1288408 120.75087,61.1288408 C120.864663,61.1288408 120.965067,61.1690829 121.054762,61.2509084 C121.142449,61.3320633 121.186627,61.4360219 121.186627,61.5654673 C121.186627,61.6305253 121.16253,61.7022903 121.115005,61.7834451 L117.726009,66.9498559 L121.115005,72.214189 C121.16253,72.2953439 121.186627,72.3771694 121.186627,72.4569829 C121.186627,72.5696606 121.142449,72.6669123 121.054762,72.7480671 C120.965067,72.829222 120.864663,72.8701347 120.75087,72.8701347 C120.606288,72.8701347 120.493165,72.8057474 120.412841,72.6749607 L117.217292,67.7520145 L114.04517,72.6749607 C113.95012,72.8057474 113.827626,72.8701347 113.681705,72.8701347 C113.569921,72.8701347 113.468847,72.829222 113.379152,72.7480671 C113.291465,72.6669123 113.247287,72.5696606 113.247287,72.4569829 L113.247287,72.4569829 Z" id="Fill-5" fill="#C5C5C4" sketch:type="MSShapeGroup" mask="url(#mask-2)"></path>
                <path d="M124.697648,71.8508032 L128.546498,71.8508032 C129.78951,71.8508032 130.744694,71.5067335 131.414728,70.8192648 C132.084093,70.1324669 132.418776,69.1009286 132.418776,67.7273327 L132.418776,59.9894538 C132.418776,58.6151872 132.084093,57.5836488 131.414728,56.8955095 C130.744694,56.2080408 129.78951,55.8666539 128.546498,55.8666539 L124.697648,55.8666539 L124.697648,71.8508032 Z M123.825466,72.3115748 L123.825466,55.4038702 C123.825466,55.1295534 123.970718,54.9934011 124.261222,54.9934011 L128.546498,54.9934011 C129.983625,54.9934011 131.131587,55.3917975 131.997076,56.191944 C132.858549,56.9934318 133.290289,58.2590449 133.290289,59.9894538 L133.290289,67.7273327 C133.290289,69.4570709 132.858549,70.7233546 131.997076,71.5241717 C131.131587,72.3243182 129.983625,72.7227146 128.546498,72.7227146 L124.261222,72.7227146 C123.970718,72.7227146 123.825466,72.5865623 123.825466,72.3115748 L123.825466,72.3115748 Z" id="Fill-6" fill="#C5C5C4" sketch:type="MSShapeGroup" mask="url(#mask-2)"></path>
                <path d="M137.992245,67.5586513 L144.76756,67.5586513 L141.395298,56.4665961 L137.992245,67.5586513 Z M135.735146,72.3353847 C135.735146,72.2716681 135.743848,72.2233777 135.760582,72.1898426 L141.019115,55.1889104 C141.084712,54.9615428 141.227957,54.8475236 141.454202,54.8475236 C141.677101,54.8475236 141.829716,54.9615428 141.91004,55.1842155 L147.115023,72.1992324 C147.115023,72.2146585 147.117701,72.2347796 147.126403,72.2569127 C147.134435,72.2810579 147.138451,72.2998376 147.138451,72.3166051 C147.138451,72.4286122 147.090257,72.5265346 146.993199,72.6029945 C146.89681,72.68482 146.784357,72.72305 146.653831,72.72305 C146.460384,72.72305 146.331197,72.619762 146.266938,72.4098326 L145.031959,68.4319042 L137.724499,68.4319042 L136.514287,72.3789803 C136.457391,72.6097015 136.327534,72.72305 136.125386,72.72305 C135.865003,72.72305 135.735146,72.5956168 135.735146,72.3353847 L135.735146,72.3353847 Z" id="Fill-7" fill="#C5C5C4" sketch:type="MSShapeGroup" mask="url(#mask-2)"></path>
                <path d="M154.449526,72.2876979 L154.449526,54.507411 C154.449526,54.2330943 154.586746,54.0956005 154.860516,54.0956005 C155.150351,54.0956005 155.296273,54.2330943 155.296273,54.507411 L155.296273,72.2876979 C155.296273,72.4017171 155.251425,72.5023222 155.163069,72.5908548 C155.074713,72.6787166 154.9723,72.7229829 154.860516,72.7229829 C154.747393,72.7229829 154.650335,72.6787166 154.57135,72.5908548 C154.489018,72.5023222 154.449526,72.4017171 154.449526,72.2876979 L154.449526,72.2876979 Z" id="Fill-8" fill="#C5C5C4" sketch:type="MSShapeGroup" mask="url(#mask-2)"></path>
                <path d="M159.217548,68.4539032 C159.217548,69.3774586 159.556916,70.2017503 160.234983,70.9287903 C160.91238,71.6571718 161.719635,72.0206918 162.656077,72.0206918 C163.59118,72.0206918 164.402451,71.6571718 165.087881,70.9287903 C165.77398,70.2017503 166.117364,69.3774586 166.117364,68.4539032 L166.117364,65.4954405 C166.117364,64.5906647 165.778665,63.7784456 165.09926,63.0574419 C164.421193,62.339121 163.605906,61.9769424 162.656077,61.9769424 C161.702231,61.9769424 160.8923,62.339121 160.221596,63.0574419 C159.55223,63.7784456 159.217548,64.5906647 159.217548,65.4954405 L159.217548,68.4539032 Z M158.370801,68.4539032 L158.370801,65.4954405 C158.370801,64.3311034 158.79317,63.3116376 159.641256,62.4390555 C160.488672,61.5658026 161.493389,61.1285055 162.656077,61.1285055 C163.816756,61.1285055 164.825489,61.5584249 165.681608,62.4149102 C166.535717,63.272737 166.963442,64.2989097 166.963442,65.4954405 L166.963442,68.4539032 C166.963442,69.6209231 166.532371,70.6457545 165.669559,71.537787 C164.806078,72.4237831 163.800691,72.8697994 162.656077,72.8697994 C161.510793,72.8697994 160.508753,72.4237831 159.654643,71.537787 C158.797186,70.6457545 158.370801,69.6209231 158.370801,68.4539032 L158.370801,68.4539032 Z" id="Fill-9" fill="#C5C5C4" sketch:type="MSShapeGroup" mask="url(#mask-2)"></path>
                <path d="M169.433667,68.4539032 L169.433667,65.543731 C169.433667,64.2345224 169.808512,63.1721318 170.558201,62.3532057 C171.308559,61.5369625 172.408995,61.1285055 173.862857,61.1285055 C174.749766,61.1285055 175.500793,61.2955101 176.113932,61.6275071 C176.726401,61.9588335 177.03364,62.2700388 177.03364,62.5611231 C177.03364,62.6731302 176.988792,62.7710525 176.901105,62.8522074 C176.810741,62.9333622 176.710336,62.9722629 176.598552,62.9722629 C176.517559,62.9722629 176.375654,62.8931201 176.174175,62.7308105 C175.972026,62.5685008 175.678844,62.4021669 175.291282,62.2338209 C174.90372,62.0648043 174.427132,61.9769424 173.862857,61.9769424 C172.716234,61.9769424 171.832003,62.294184 171.210832,62.9239724 C170.59033,63.5544315 170.279745,64.428355 170.279745,65.543731 L170.279745,68.4539032 C170.279745,69.5712913 170.59033,70.4445441 171.210832,71.0750032 C171.832003,71.7054622 172.723597,72.0206918 173.886954,72.0206918 C174.483358,72.0206918 174.988729,71.9361834 175.399719,71.7644839 C175.811379,71.596138 176.117948,71.4311455 176.320096,71.2681651 C176.520236,71.1078675 176.669505,71.0267127 176.767232,71.0267127 C176.879016,71.0267127 176.976074,71.0676255 177.057737,71.1460975 C177.13873,71.2299351 177.178222,71.3258454 177.178222,71.4398646 C177.178222,71.746375 176.860274,72.0616045 176.223708,72.3855532 C175.585133,72.7088311 174.799299,72.8697994 173.862857,72.8697994 C172.408995,72.8697994 171.308559,72.4646959 170.558201,71.6571718 C169.808512,70.8476355 169.433667,69.7812207 169.433667,68.4539032 L169.433667,68.4539032 Z" id="Fill-10" fill="#C5C5C4" sketch:type="MSShapeGroup" mask="url(#mask-2)"></path>
                <path d="M179.600053,69.666665 C179.600053,70.4446783 179.830314,71.0302003 180.290838,71.4265847 C180.750022,71.8222984 181.351112,72.0208259 182.093438,72.0208259 C182.964951,72.0208259 183.791618,71.7143155 184.575444,71.0992826 C185.358601,70.4849203 185.748841,69.9027518 185.748841,69.3514354 L185.748841,67.3145161 L184.418143,67.3145161 C183.691882,67.3145161 183.08276,67.3386613 182.590776,67.3882932 C182.097454,67.4365837 181.600785,67.5365182 181.101439,67.6887673 C180.601423,67.84437 180.226578,68.0878345 179.974897,68.4171488 C179.725224,68.7491458 179.600053,69.1669926 179.600053,69.666665 M178.752636,69.666665 C178.752636,68.4540373 179.233241,67.617673 180.19311,67.157572 C181.15298,66.6961297 182.553961,66.4660792 184.393377,66.4660792 L185.748841,66.4660792 L185.748841,65.7866589 C185.748841,64.7531085 185.483103,63.8570518 184.950289,63.1058665 C184.418143,62.3533399 183.619591,61.9770765 182.553961,61.9770765 C182.117535,61.9770765 181.710561,62.0307326 181.330362,62.1360327 C180.95217,62.2413328 180.65698,62.3493157 180.447469,62.4633349 C180.237288,62.5773541 180.101407,62.6323515 180.03514,62.6323515 C179.907291,62.6323515 179.80287,62.5773541 179.721877,62.4633349 C179.639545,62.3493157 179.600053,62.2460277 179.600053,62.1481053 C179.600053,61.9059822 179.91934,61.6732489 180.557245,61.4579539 C181.194481,61.2386346 181.876564,61.1286396 182.602156,61.1286396 C183.98908,61.1286396 185.002499,61.5706317 185.639735,62.4512622 C186.278309,63.3325635 186.596258,64.4452567 186.596258,65.7866589 L186.596258,72.287765 C186.596258,72.5788492 186.459038,72.72305 186.184598,72.72305 C186.055411,72.72305 185.95032,72.68482 185.869996,72.6029945 C185.789003,72.5218397 185.748841,72.4185517 185.748841,72.287765 L185.748841,71.0268468 C184.683881,72.2549006 183.473669,72.8699335 182.117535,72.8699335 C181.116165,72.8699335 180.306233,72.5982996 179.685062,72.0563731 C179.063891,71.5144466 178.752636,70.718995 178.752636,69.666665" id="Fill-11" fill="#C5C5C4" sketch:type="MSShapeGroup" mask="url(#mask-2)"></path>
                <path d="M190.010221,72.2876979 L190.010221,54.507411 C190.010221,54.2330943 190.146102,54.0956005 190.419872,54.0956005 C190.711716,54.0956005 190.857637,54.2330943 190.857637,54.507411 L190.857637,72.2876979 C190.857637,72.4017171 190.81279,72.5023222 190.723764,72.5908548 C190.634739,72.6787166 190.532995,72.7229829 190.419872,72.7229829 C190.308758,72.7229829 190.212369,72.6787166 190.130707,72.5908548 C190.049714,72.5023222 190.010221,72.4017171 190.010221,72.2876979 L190.010221,72.2876979 Z" id="Fill-12" fill="#C5C5C4" sketch:type="MSShapeGroup" mask="url(#mask-2)"></path>
                <path d="M199.837171,66.1753973 C199.837171,67.1137082 200.11228,67.8823317 200.66116,68.4792557 C201.210039,69.0788625 201.959728,69.3773245 202.913574,69.3773245 C203.832612,69.3773245 204.570922,69.0788625 205.127834,68.4792557 C205.684076,67.8823317 205.962532,67.1210859 205.962532,66.1995426 L205.962532,65.1062997 C205.962532,64.2015239 205.688093,63.4543628 205.139882,62.8621338 C204.591003,62.2745996 203.839975,61.9768083 202.889477,61.9768083 C201.951696,61.9768083 201.210039,62.2745996 200.66116,62.8621338 C200.11228,63.4543628 199.837171,64.2015239 199.837171,65.1062997 L199.837171,66.1753973 Z M199.18454,75.2701046 C199.18454,75.9998274 199.526586,76.5833374 200.213355,77.0313657 C200.898115,77.4740285 201.838573,77.6960306 203.03406,77.6960306 C204.210804,77.6960306 205.119132,77.4740285 205.757707,77.0313657 C206.395612,76.5853495 206.712221,75.9857427 206.712221,75.226509 C206.712221,74.8542699 206.619849,74.5363576 206.435104,74.2674064 C206.24969,74.0018088 206.026122,73.7959035 205.768416,73.6510321 C205.510711,73.5061606 205.184061,73.384093 204.788466,73.2888535 C204.391532,73.1909311 204.037438,73.1265438 203.722836,73.0950208 C203.407565,73.0634979 203.040753,73.0306335 202.621731,72.9964278 C202.202039,72.9615513 201.902832,72.928687 201.72612,72.8944812 C200.031287,73.3787274 199.18454,74.1714961 199.18454,75.2701046 L199.18454,75.2701046 Z M198.338463,75.3438817 C198.338463,74.0661961 199.071418,73.168798 200.540005,72.6523581 C199.556038,72.3766999 199.064055,71.8012384 199.064055,70.9293269 C199.064055,70.1861901 199.459649,69.6261546 200.25017,69.2559276 C199.410786,68.5107786 198.991094,67.493325 198.991094,66.1995426 L198.991094,65.1062997 C198.991094,63.9265364 199.349204,62.9701166 200.068102,62.2336868 C200.786331,61.4965863 201.72612,61.129042 202.889477,61.129042 C204.06689,61.129042 205.02609,61.517378 205.768416,62.2947206 C205.993992,61.8735203 206.278473,61.5207315 206.615833,61.2383663 C206.954531,60.9560012 207.278504,60.8131418 207.585074,60.8131418 C207.923103,60.8131418 208.093791,60.9761222 208.093791,61.3000708 C208.093791,61.4442716 208.048944,61.5582908 207.958579,61.6394456 C207.870223,61.7206004 207.770488,61.7615132 207.656696,61.7615132 C207.076356,61.7615132 206.591736,62.1317402 206.203504,62.8742064 C206.60847,63.4422902 206.809949,64.1847564 206.809949,65.1062997 L206.809949,66.1995426 C206.809949,67.3625383 206.442467,68.3263358 205.708174,69.0842281 C204.974549,69.8461446 204.026059,70.2271028 202.862702,70.2271028 C202.121715,70.2271028 201.460382,70.0554033 200.880042,69.7160286 C200.232766,70.0071128 199.910132,70.3947781 199.910132,70.879695 C199.910132,71.2438857 200.100901,71.5222267 200.48177,71.7200835 C200.8613,71.9179404 201.336549,72.0473857 201.90551,72.1131144 C202.475809,72.1781724 203.088947,72.2472546 203.745595,72.3217024 C204.402242,72.3981624 205.012034,72.5074866 205.577647,72.6536995 C206.141253,72.800583 206.612486,73.0896552 206.992016,73.5229282 C207.370877,73.954189 207.559638,74.5135537 207.559638,75.1976689 C207.559638,76.2339021 207.157349,77.0367314 206.349425,77.6115222 C205.54351,78.1849717 204.437049,78.4720318 203.03406,78.4720318 C201.614336,78.4720318 200.475076,78.1896666 199.619628,77.6235948 C198.764848,77.0581938 198.338463,76.2989601 198.338463,75.3438817 L198.338463,75.3438817 Z" id="Fill-13" fill="#C5C5C4" sketch:type="MSShapeGroup" mask="url(#mask-2)"></path>
                <path d="M210.004762,72.2876979 L210.004762,61.6852545 C210.004762,61.4129498 210.141982,61.2747854 210.417091,61.2747854 C210.706256,61.2747854 210.852178,61.4129498 210.852178,61.6852545 L210.852178,62.9723299 C211.579109,61.7449469 212.699626,61.1285726 214.219085,61.1285726 L215.112688,61.1285726 C215.22581,61.1285726 215.322199,61.1735095 215.403192,61.2627128 C215.484185,61.3525867 215.524347,61.4538626 215.524347,61.5658697 C215.524347,61.6778768 215.484185,61.7757991 215.403192,61.856954 C215.322199,61.9387795 215.22581,61.9770095 215.112688,61.9770095 L214.219085,61.9770095 C213.312765,61.9770095 212.52626,62.3029702 211.856895,62.947514 C211.18753,63.5947406 210.852178,64.4451896 210.852178,65.4955076 L210.852178,72.2876979 C210.852178,72.4017171 210.807331,72.5023222 210.719644,72.5908548 C210.629279,72.6787166 210.528875,72.7229829 210.417091,72.7229829 C210.303968,72.7229829 210.207579,72.6787166 210.126586,72.5908548 C210.044924,72.5023222 210.004762,72.4017171 210.004762,72.2876979 L210.004762,72.2876979 Z" id="Fill-14" fill="#C5C5C4" sketch:type="MSShapeGroup" mask="url(#mask-2)"></path>
                <path d="M217.242875,68.4539032 C217.242875,69.3774586 217.582913,70.2017503 218.26031,70.9287903 C218.937708,71.6571718 219.744962,72.0206918 220.681404,72.0206918 C221.615169,72.0206918 222.427778,71.6571718 223.113208,70.9287903 C223.799307,70.2017503 224.14403,69.3774586 224.14403,68.4539032 L224.14403,65.4954405 C224.14403,64.5906647 223.803324,63.7784456 223.125926,63.0574419 C222.447859,62.339121 221.631903,61.9769424 220.681404,61.9769424 C219.727559,61.9769424 218.916288,62.339121 218.247592,63.0574419 C217.578227,63.7784456 217.242875,64.5906647 217.242875,65.4954405 L217.242875,68.4539032 Z M216.396798,68.4539032 L216.396798,65.4954405 C216.396798,64.3311034 216.818498,63.3116376 217.668592,62.4390555 C218.514669,61.5658026 219.519386,61.1285055 220.681404,61.1285055 C221.843422,61.1285055 222.852156,61.5584249 223.706266,62.4149102 C224.561045,63.272737 224.990108,64.2989097 224.990108,65.4954405 L224.990108,68.4539032 C224.990108,69.6209231 224.558368,70.6457545 223.694886,71.537787 C222.831405,72.4237831 221.826019,72.8697994 220.681404,72.8697994 C219.534782,72.8697994 218.53475,72.4237831 217.679301,71.537787 C216.823183,70.6457545 216.396798,69.6209231 216.396798,68.4539032 L216.396798,68.4539032 Z" id="Fill-15" fill="#C5C5C4" sketch:type="MSShapeGroup" mask="url(#mask-2)"></path>
                <path d="M227.749566,68.503468 L227.749566,61.710607 C227.749566,61.5992706 227.793744,61.4966533 227.8821,61.4101329 C227.972465,61.3202589 228.0722,61.2746513 228.184653,61.2746513 C228.298446,61.2746513 228.395504,61.3202589 228.476497,61.4101329 C228.555482,61.4966533 228.596982,61.5992706 228.596982,61.710607 L228.596982,68.503468 C228.596982,69.4250113 228.93702,70.242596 229.614418,70.9535392 C230.292484,71.6651531 231.107102,72.0206247 232.059609,72.0206247 C232.994712,72.0206247 233.801297,71.6651531 234.480702,70.9535392 C235.1581,70.242596 235.496799,69.4250113 235.496799,68.503468 L235.496799,61.6851203 C235.496799,61.5744547 235.538969,61.477203 235.629333,61.3973896 C235.71702,61.315564 235.817425,61.2746513 235.933225,61.2746513 C236.045009,61.2746513 236.142067,61.315564 236.222391,61.3973896 C236.302715,61.477203 236.342876,61.5744547 236.342876,61.6851203 L236.342876,68.503468 C236.342876,69.6664637 235.919838,70.6859295 235.072421,71.5591823 C234.225005,72.4317645 233.219618,72.870403 232.059609,72.870403 C230.879518,72.870403 229.867438,72.4317645 229.020021,71.5591823 C228.173944,70.6859295 227.749566,69.6664637 227.749566,68.503468 L227.749566,68.503468 Z" id="Fill-16" fill="#C5C5C4" sketch:type="MSShapeGroup" mask="url(#mask-2)"></path>
                <path d="M240.409538,69.3515025 C240.409538,69.8545283 240.749575,70.4232829 241.426973,71.0631318 C242.10437,71.7023099 242.879495,72.020893 243.751009,72.020893 C244.654652,72.020893 245.449188,71.657373 246.134618,70.9289915 C246.820048,70.2012808 247.162763,69.3776598 247.162763,68.4541044 L247.162763,65.4956417 C247.162763,64.5901952 246.820048,63.7786468 246.134618,63.0576431 C245.449188,62.3393222 244.64595,61.9771436 243.726242,61.9771436 C242.854059,61.9771436 242.084959,62.3031044 241.415594,62.9476481 C240.74489,63.5948747 240.409538,64.4453238 240.409538,65.4956417 L240.409538,69.3515025 Z M239.56346,78.0364114 L239.56346,61.6853886 C239.56346,61.413084 239.698672,61.2749195 239.973112,61.2749195 C240.264955,61.2749195 240.409538,61.413084 240.409538,61.6853886 L240.409538,62.9717934 C241.103669,61.745081 242.183356,61.1287067 243.65462,61.1287067 C244.847429,61.1287067 245.873566,61.5579554 246.727676,62.4151115 C247.583794,63.2729382 248.011518,64.2991109 248.011518,65.4956417 L248.011518,68.4541044 C248.011518,69.6204537 247.578439,70.645285 246.716966,71.5373175 C245.851477,72.4239844 244.847429,72.8700006 243.702815,72.8700006 C242.992618,72.8700006 242.334632,72.6909234 241.729526,72.3354518 C241.12442,71.9799802 240.683308,71.5433538 240.409538,71.0262432 L240.409538,78.0364114 C240.409538,78.1484185 240.36469,78.2496943 240.276334,78.3395683 C240.187978,78.4267594 240.088242,78.4716964 239.973112,78.4716964 C239.861328,78.4716964 239.76427,78.4267594 239.683277,78.3395683 C239.603622,78.2496943 239.56346,78.1484185 239.56346,78.0364114 L239.56346,78.0364114 Z" id="Fill-17" fill="#C5C5C4" sketch:type="MSShapeGroup" mask="url(#mask-2)"></path>
                <path d="M250.394458,48.0155607 C250.394458,47.5628374 250.564477,47.177855 250.903845,46.8572598 C251.245222,46.5393475 251.664914,46.3790499 252.16426,46.3790499 C252.640179,46.3790499 253.048491,46.5393475 253.389868,46.8572598 C253.729905,47.177855 253.899255,47.5628374 253.899255,48.0155607 C253.899255,48.4468215 253.729905,48.8237556 253.389868,49.1430093 C253.048491,49.4602509 252.640179,49.6205485 252.16426,49.6205485 C251.664914,49.6205485 251.245222,49.4602509 250.903845,49.1430093 C250.564477,48.8237556 250.394458,48.4468215 250.394458,48.0155607 L250.394458,48.0155607 Z" id="Fill-18" fill="#2D2D2C" sketch:type="MSShapeGroup" mask="url(#mask-2)"></path>
                <path d="M256.556233,43.0703471 L256.556233,39.6584905 C256.556233,37.7033967 257.12854,36.1104816 258.275832,34.8810864 C259.422454,33.654374 261.107916,33.0393411 263.332886,33.0393411 C264.738553,33.0393411 265.923999,33.2915247 266.888554,33.7911971 C267.854448,34.2901987 268.33706,34.8254182 268.33706,35.3948435 C268.33706,35.7127558 268.217913,36.0253025 267.97895,36.3318129 C267.740656,36.6396648 267.4622,36.7925846 267.14559,36.7925846 C267.053218,36.7925846 266.662308,36.5994227 265.970854,36.2137695 C265.278061,35.8261043 264.465452,35.6329424 263.535704,35.6329424 C262.173545,35.6329424 261.140715,35.9837191 260.437881,36.6846017 C259.733709,37.3854844 259.382293,38.3801342 259.382293,39.668551 L259.382293,43.0596159 C259.382293,45.7511396 260.778588,47.0958953 263.569172,47.0958953 C264.523017,47.0958953 265.352361,46.8973678 266.056533,46.4989713 C266.758697,46.1012455 267.16701,45.9020473 267.280802,45.9020473 C267.642928,45.9020473 267.945481,46.0502723 268.183106,46.3453807 C268.42207,46.6418306 268.540547,46.9490118 268.540547,47.2662534 C268.540547,47.8343372 268.04187,48.3816294 267.043847,48.9034348 C266.043146,49.4272524 264.818877,49.6881552 263.365685,49.6881552 C261.118626,49.6881552 259.422454,49.0798292 258.275832,47.8625067 C257.12854,46.6471963 256.556233,45.0475741 256.556233,43.0703471 L256.556233,43.0703471 Z" id="Fill-19" fill="#2D2D2C" sketch:type="MSShapeGroup" mask="url(#mask-2)"></path>
                <path d="M271.367544,48.3938361 L271.367544,24.5094983 C271.367544,24.2150605 271.497401,23.9762909 271.759792,23.7952016 C272.020175,23.6134416 272.354858,23.5215556 272.763171,23.5215556 C273.172153,23.5215556 273.51219,23.6134416 273.785291,23.7952016 C274.057053,23.9762909 274.192935,24.2164019 274.192935,24.5108397 L274.192935,35.6672823 C274.579828,34.929511 275.152135,34.3077711 275.912534,33.800721 C276.672263,33.2923296 277.575237,33.0394752 278.620116,33.0394752 C280.230609,33.0394752 281.632929,33.6833483 282.825068,34.9670703 C284.016538,36.2521336 284.612273,37.7940755 284.612273,39.5902131 L284.612273,48.3924947 C284.612273,48.7097364 284.470368,48.9605786 284.186557,49.1430093 C283.903415,49.3247693 283.568733,49.4153139 283.18184,49.4153139 C282.817705,49.4153139 282.49574,49.3247693 282.210591,49.1430093 C281.927449,48.9625907 281.785544,48.7124192 281.785544,48.3945068 L281.785544,39.6150291 C281.785544,38.5928806 281.39999,37.6746907 280.628212,36.8584475 C279.857103,36.0422042 278.947436,35.6330765 277.904565,35.6330765 C276.927961,35.6330765 276.066488,36.0019621 275.316799,36.7390627 C274.567779,37.4761632 274.192935,38.4352658 274.192935,39.6150291 L274.192935,48.3945068 C274.192935,48.6446783 274.051699,48.8774116 273.767888,49.0933774 C273.484077,49.3080018 273.149394,49.4153139 272.763171,49.4153139 C272.377616,49.4153139 272.048289,49.3147088 271.775857,49.1081328 C271.504095,48.9042397 271.367544,48.6654701 271.367544,48.3938361 L271.367544,48.3938361 Z" id="Fill-20" fill="#2D2D2C" sketch:type="MSShapeGroup" mask="url(#mask-2)"></path>
                <path d="M81.825611,42.1830766 L81.825611,25.4658511 C81.825611,25.1479387 81.9675165,24.9038035 82.2513273,24.732104 C82.5351381,24.5624166 82.8691514,24.4779083 83.2567138,24.4779083 C83.6422682,24.4779083 83.9762814,24.5624166 84.2607616,24.732104 C84.5439031,24.9038035 84.6858085,25.1479387 84.6858085,25.4658511 L84.6858085,42.1830766 C84.6858085,45.4125026 86.2066062,47.0275509 89.248871,47.0275509 C90.7234826,47.0275509 91.8580566,46.6244595 92.652593,45.8155939 C93.4477989,45.0087405 93.8447325,43.7987956 93.8447325,42.1830766 L93.8447325,25.4658511 C93.8447325,24.8078933 94.3219898,24.4779083 95.2751659,24.4779083 C95.6600509,24.4779083 95.9947335,24.5624166 96.2792137,24.732104 C96.5623551,24.9038035 96.7042606,25.1479387 96.7042606,25.4658511 L96.7042606,42.1830766 C96.7042606,44.7545447 96.0241855,46.6365321 94.661358,47.8290387 C93.2998692,49.022216 91.49593,49.6204814 89.248871,49.6204814 C87.0011427,49.6204814 85.2018891,49.022216 83.8517795,47.8290387 C82.5010005,46.6365321 81.825611,44.7545447 81.825611,42.1830766 L81.825611,42.1830766 Z" id="Fill-21" fill="#2D2D2C" sketch:type="MSShapeGroup" mask="url(#mask-2)"></path>
                <path d="M99.7011424,48.0851795 C99.7011424,47.8799449 99.7687483,47.6767225 99.9046294,47.4701465 L105.761575,36.9294076 L100.04118,26.4550682 C99.8825404,26.2055673 99.8028859,25.9547251 99.8028859,25.7052243 C99.8028859,25.3195711 99.978929,25.005683 100.331015,24.7675841 C100.682432,24.5281438 101.08472,24.4094297 101.539219,24.4094297 C102.015807,24.4094297 102.436169,24.772279 102.798965,25.5006604 L107.599652,34.5739053 L112.434476,25.5006604 C112.797942,24.772279 113.217634,24.4094297 113.694222,24.4094297 C114.148721,24.4094297 114.55034,24.5281438 114.903095,24.7675841 C115.254512,25.005683 115.430555,25.3195711 115.430555,25.7052243 C115.430555,25.9547251 115.350231,26.2055673 115.19293,26.4550682 L109.437729,36.9294076 L115.328142,47.4701465 C115.464693,47.6767225 115.532968,47.8799449 115.532968,48.0851795 C115.532968,48.4486995 115.333497,48.7733188 114.937233,49.0570254 C114.53963,49.3427441 114.137342,49.4835913 113.728359,49.4835913 C113.342136,49.4835913 112.97934,49.1643376 112.638633,48.5285129 L107.599652,39.2151571 L102.594808,48.5285129 C102.254101,49.1643376 101.891305,49.4835913 101.505082,49.4835913 C101.096769,49.4835913 100.693142,49.3427441 100.296208,49.0570254 C99.8992745,48.7733188 99.7011424,48.4486995 99.7011424,48.0851795 L99.7011424,48.0851795 Z" id="Fill-22" fill="#2D2D2C" sketch:type="MSShapeGroup" mask="url(#mask-2)"></path>
                <path d="M121.491389,35.9737927 L125.883094,35.9737927 C129.015054,35.9737927 130.582038,34.4848362 130.582038,31.5049111 C130.582038,28.5471191 129.015054,27.0702352 125.883094,27.0702352 L121.491389,27.0702352 L121.491389,35.9737927 Z M118.631192,48.3924947 L118.631192,25.4659181 C118.631192,25.1936135 118.72758,24.9655751 118.920357,24.7851565 C119.113135,24.6027258 119.357453,24.5001085 119.652643,24.4779754 L125.883094,24.4779754 C128.152912,24.4779754 129.980279,25.0058172 131.364526,26.0635128 C132.749442,27.1212085 133.442235,28.8663728 133.442235,31.2996765 C133.442235,35.05292 131.751419,37.270258 128.368447,37.952361 L133.408098,47.5400336 C133.498462,47.6976484 133.543979,47.8572752 133.543979,48.0169021 C133.543979,48.3817635 133.362581,48.7164434 132.999116,49.0222831 C132.63632,49.3294642 132.250096,49.4830548 131.841783,49.4830548 C131.364526,49.4830548 130.934124,49.1081328 130.5479,48.358289 L125.407176,38.3628301 L121.491389,38.3628301 L121.491389,48.3924947 C121.491389,48.7097364 121.349484,48.9605786 121.065673,49.1430093 C120.781862,49.3247693 120.447179,49.4153139 120.060956,49.4153139 C119.674732,49.4153139 119.340719,49.3247693 119.056908,49.1430093 C118.772428,48.9605786 118.631192,48.7097364 118.631192,48.3924947 L118.631192,48.3924947 Z" id="Fill-23" fill="#2D2D2C" sketch:type="MSShapeGroup" mask="url(#mask-2)"></path>
                <path d="M138.481618,43.059683 C138.481618,44.1227443 138.867173,45.0610552 139.638951,45.8746156 C140.410729,46.6888468 141.318388,47.0959624 142.363267,47.0959624 C143.429566,47.0959624 144.348604,46.6834812 145.121052,45.8585188 C145.89216,45.0328857 146.277715,44.0999404 146.277715,43.059683 L146.277715,39.6008773 C146.277715,38.5834237 145.89216,37.6685873 145.121052,36.8550269 C144.348604,36.0407957 143.429566,35.6330094 142.363267,35.6330094 C141.296299,35.6330094 140.382615,36.0407957 139.622216,36.8550269 C138.861818,37.6685873 138.481618,38.5834237 138.481618,39.6008773 L138.481618,43.059683 Z M135.655558,43.0704142 L135.655558,39.5901461 C135.655558,37.8382747 136.319569,36.3104176 137.64692,35.0018797 C138.97561,33.6933418 140.547279,33.0394082 142.363267,33.0394082 C144.178585,33.0394082 145.756279,33.6886469 147.095679,34.9844414 C148.434409,36.2809067 149.103774,37.8154709 149.103774,39.5901461 L149.103774,43.0704142 C149.103774,44.7981403 148.428385,46.3340459 147.078945,47.6761189 C145.727496,49.0181918 144.155827,49.6882222 142.363267,49.6882222 C140.569368,49.6882222 139.003723,49.022216 137.664323,47.6922157 C136.324254,46.362886 135.655558,44.8209442 135.655558,43.0704142 L135.655558,43.0704142 Z" id="Fill-24" fill="#2D2D2C" sketch:type="MSShapeGroup" mask="url(#mask-2)"></path>
                <path d="M152.508902,48.3922935 L152.508902,34.2337927 C152.508902,33.9386842 152.639428,33.6992439 152.900481,33.5181546 C153.160864,33.3357239 153.496216,33.2445086 153.905198,33.2445086 C154.267324,33.2445086 154.573894,33.3370653 154.824236,33.5221788 C155.07391,33.705951 155.198411,33.9480741 155.198411,34.2485482 L155.198411,35.667081 C155.607394,34.906506 156.202459,34.278059 156.986286,33.7830816 C157.769443,33.2874335 158.682457,33.039274 159.726667,33.039274 C160.770877,33.039274 161.706649,33.3571864 162.535993,33.9876454 C163.363997,34.6174338 163.98316,35.4511153 164.391473,36.4833243 C164.957756,35.3585585 165.708114,34.504756 166.637863,33.9185632 C167.567611,33.3330411 168.545553,33.039274 169.567674,33.039274 C171.154739,33.039274 172.522252,33.6315031 173.668205,34.8139492 C174.814828,35.9963953 175.388474,37.5893105 175.388474,39.5906826 L175.388474,48.3922935 C175.388474,48.6431357 175.246568,48.8745276 174.963427,49.0918348 C174.679616,49.3078006 174.343595,49.4151127 173.959379,49.4151127 C173.596583,49.4151127 173.271941,49.3078006 172.9888,49.0931762 C172.704989,48.8778811 172.562414,48.6444771 172.562414,48.3949763 L172.562414,39.6148279 C172.562414,38.3894569 172.204304,37.4189524 171.49076,36.7059971 C170.77454,35.9910297 169.941849,35.6328753 168.989343,35.6328753 C168.034158,35.6328753 167.18942,35.9950539 166.45111,36.7214232 C165.712131,37.4471218 165.345318,38.3787257 165.345318,39.5128813 L165.345318,48.4285114 C165.345318,48.745753 165.203413,48.9905589 164.919602,49.160917 C164.635122,49.3306044 164.300439,49.4151127 163.914885,49.4151127 C163.55142,49.4151127 163.227447,49.3306044 162.944305,49.160917 C162.660495,48.9905589 162.518589,48.745753 162.518589,48.4285114 L162.518589,39.5470871 C162.518589,38.4122608 162.172527,37.4766327 161.480404,36.7388614 C160.78828,36.0017609 159.953582,35.6328753 158.978317,35.6328753 C158.001713,35.6328753 157.15095,35.9950539 156.424019,36.7214232 C155.697758,37.4471218 155.334962,38.4122608 155.334962,39.6148279 L155.334962,48.3949763 C155.334962,48.6444771 155.192387,48.8778811 154.909246,49.0931762 C154.624765,49.3078006 154.290083,49.4151127 153.905198,49.4151127 C153.518974,49.4151127 153.189647,49.3131662 152.917884,49.1086023 C152.644783,48.9033678 152.508902,48.6659396 152.508902,48.3922935 L152.508902,48.3922935 Z" id="Fill-25" fill="#2D2D2C" sketch:type="MSShapeGroup" mask="url(#mask-2)"></path>
                <path d="M181.075133,44.8786245 C181.075133,45.7317563 181.312757,46.3756294 181.790015,46.8135972 C182.265933,47.2522357 182.90183,47.4702136 183.696367,47.4702136 C184.650212,47.4702136 185.575275,47.0838898 186.470886,46.3132542 C187.367835,45.5412772 187.81564,44.7532033 187.81564,43.9456792 L187.81564,42.1482002 L186.62484,42.1482002 C185.965515,42.1482002 185.398563,42.1669798 184.921975,42.2005149 C184.444048,42.2353913 183.952064,42.3038028 183.440669,42.4077615 C182.929944,42.5117202 182.510252,42.6612865 182.180924,42.857802 C181.851596,43.052976 181.585189,43.3185736 181.381033,43.6525828 C181.176207,43.9859213 181.075133,44.3950489 181.075133,44.8786245 M178.214935,45.1898298 C178.214935,43.4017406 178.89501,42.15759 180.257838,41.4580487 C181.619996,40.7591781 183.593285,40.4097429 186.182389,40.4097429 L187.81564,40.4097429 L187.81564,39.6880684 C187.81564,38.5418402 187.503716,37.545849 186.879198,36.6987535 C186.256019,35.851658 185.318908,35.4277749 184.071211,35.4277749 C183.117366,35.4277749 182.276643,35.598133 181.551051,35.9401905 C180.82479,36.2809067 180.427857,36.4512648 180.360251,36.4512648 C180.041633,36.4512648 179.785935,36.2983449 179.593158,35.9911638 C179.40105,35.6846534 179.303992,35.3600341 179.303992,35.0179765 C179.303992,34.4968417 179.820742,34.0360701 180.852904,33.6370029 C181.885065,33.2392771 182.980815,33.0394082 184.138148,33.0394082 C186.364457,33.0394082 188.003063,33.6712086 189.058651,34.9334682 C190.11424,36.1963984 190.642369,37.7712046 190.642369,39.6585576 L190.642369,48.3924277 C190.642369,48.6868655 190.511174,48.9323421 190.250791,49.125504 C189.989738,49.3186659 189.655056,49.4152469 189.246074,49.4152469 C188.881939,49.4152469 188.57537,49.3226901 188.326366,49.1335524 C188.076693,48.9444147 187.952191,48.7069865 187.952191,48.4192557 L187.952191,47.0919382 C186.408635,48.8236885 184.69439,49.6882222 182.810797,49.6882222 C181.448639,49.6882222 180.343517,49.3052519 179.491415,48.5386405 C178.640652,47.7720291 178.214935,46.6566531 178.214935,45.1898298" id="Fill-26" fill="#2D2D2C" sketch:type="MSShapeGroup" mask="url(#mask-2)"></path>
                <path d="M194.52355,48.3922935 L194.52355,34.2337927 C194.52355,33.9386842 194.653407,33.6992439 194.915798,33.5181546 C195.175511,33.3357239 195.510863,33.2445086 195.919176,33.2445086 C196.260552,33.2445086 196.559759,33.3424309 196.82215,33.5396171 C197.083202,33.7354618 197.214398,33.9708779 197.214398,34.2485482 L197.214398,35.667081 C197.576524,34.9299805 198.160211,34.3075699 198.966126,33.8005198 C199.773381,33.2927991 200.708484,33.039274 201.776122,33.039274 C203.387284,33.039274 204.788934,33.6831471 205.979735,34.9668691 C207.172544,36.2526031 207.768279,37.7938743 207.768279,39.5906826 L207.768279,48.3922935 C207.768279,48.7095351 207.626373,48.9610481 207.342562,49.1434788 C207.059421,49.3252388 206.7234,49.4151127 206.337845,49.4151127 C205.97438,49.4151127 205.651746,49.3252388 205.367935,49.1434788 C205.083455,48.9623895 204.94155,48.7128887 204.94155,48.3949763 L204.94155,39.6148279 C204.94155,38.5926794 204.555995,37.6744895 203.784217,36.8582462 C203.012439,36.0426737 202.105449,35.6328753 201.06057,35.6328753 C200.085305,35.6328753 199.222493,36.0017609 198.472804,36.7388614 C197.725123,37.4766327 197.34894,38.4350646 197.34894,39.6148279 L197.34894,48.3949763 C197.34894,48.6444771 197.202349,48.8778811 196.907828,49.0931762 C196.611969,49.3078006 196.282641,49.4151127 195.919176,49.4151127 C195.533622,49.4151127 195.204963,49.3131662 194.931862,49.1086023 C194.6601,48.9033678 194.52355,48.6659396 194.52355,48.3922935 L194.52355,48.3922935 Z" id="Fill-27" fill="#2D2D2C" sketch:type="MSShapeGroup" mask="url(#mask-2)"></path>
                <path d="M213.862246,43.059683 C213.862246,44.0999404 214.247801,45.0328857 215.018909,45.8585188 C215.791357,46.6834812 216.687637,47.0959624 217.709758,47.0959624 C218.706442,47.0959624 219.604061,46.7163455 220.398598,45.959124 C221.193134,45.2032438 221.590737,44.5412618 221.590737,43.97519 L221.590737,39.6008773 C221.590737,38.4237968 221.203844,37.4693891 220.433405,36.7349714 C219.660288,36.0005536 218.764008,35.6330094 217.743226,35.6330094 C216.698347,35.6330094 215.791357,36.0407957 215.018909,36.8550269 C214.247801,37.6685873 213.862246,38.5834237 213.862246,39.6008773 L213.862246,43.059683 Z M211.035517,43.0704142 L211.035517,39.5901461 C211.035517,37.7940085 211.637277,36.2527373 212.840126,34.9670032 C214.042975,33.6832813 215.472739,33.0394082 217.130087,33.0394082 C218.150869,33.0394082 219.047819,33.2929332 219.819597,33.800654 C220.591375,34.307704 221.181085,34.929444 221.590737,35.6672152 L221.590737,24.5107727 C221.590737,24.2163349 221.727287,23.9762239 221.99838,23.7951346 C222.272151,23.6133745 222.611519,23.5214885 223.020501,23.5214885 C223.428814,23.5214885 223.763496,23.6133745 224.023879,23.7951346 C224.285601,23.9762239 224.416127,24.2149935 224.416127,24.5094313 L224.416127,48.3937691 C224.416127,48.665403 224.280916,48.9041726 224.008484,49.1080658 C223.735383,49.3146417 223.406055,49.4152469 223.020501,49.4152469 C222.679794,49.4152469 222.37858,49.3119589 222.118197,49.1040416 C221.857144,48.8967949 221.727287,48.6553425 221.727287,48.3770015 L221.727287,46.9940158 C221.340394,47.731787 220.715877,48.3642582 219.853734,48.8934414 C218.990923,49.4232953 218.049795,49.6882222 217.028344,49.6882222 C215.437932,49.6882222 214.042975,49.0181918 212.840126,47.6761189 C211.637277,46.3340459 211.035517,44.7981403 211.035517,43.0704142 L211.035517,43.0704142 Z" id="Fill-28" fill="#2D2D2C" sketch:type="MSShapeGroup" mask="url(#mask-2)"></path>
                <path d="M228.468397,48.3922935 L228.468397,34.2337927 C228.468397,33.9386842 228.603609,33.6992439 228.87671,33.5181546 C229.149811,33.3357239 229.4778,33.2445086 229.864024,33.2445086 C230.273006,33.2445086 230.613043,33.3357239 230.884806,33.5181546 C231.157907,33.6992439 231.293788,33.9386842 231.293788,34.2337927 L231.293788,48.3922935 C231.293788,48.6431357 231.152552,48.8745276 230.868741,49.0918348 C230.58493,49.3078006 230.248909,49.4151127 229.864024,49.4151127 C229.4778,49.4151127 229.149811,49.3131662 228.87671,49.1086023 C228.603609,48.9033678 228.468397,48.6659396 228.468397,48.3922935 M228.621013,28.3141846 C228.269596,27.9848703 228.092884,27.6052535 228.092884,27.1719806 C228.092884,26.7400491 228.263572,26.3651271 228.603609,26.0472148 C228.944985,25.7266197 229.363339,25.5683342 229.864024,25.5683342 C230.339942,25.5683342 230.749594,25.7266197 231.089631,26.0472148 C231.430338,26.3651271 231.600357,26.7400491 231.600357,27.1719806 C231.600357,27.6052535 231.430338,27.9848703 231.089631,28.3141846 C230.749594,28.645511 230.339942,28.8098327 229.864024,28.8098327 C229.387436,28.8098327 228.973099,28.645511 228.621013,28.3141846" id="Fill-29" fill="#2D2D2C" sketch:type="MSShapeGroup" mask="url(#mask-2)"></path>
                <path d="M237.525511,40.2044412 L243.824237,40.2044412 C244.414617,40.2044412 244.811551,40.1306641 245.015038,39.9817685 C245.219864,39.8342142 245.320938,39.545142 245.320938,39.1132105 C245.320938,38.0890499 244.948102,37.1909811 244.197743,36.4176627 C243.448054,35.6436736 242.530354,35.2580204 241.439959,35.2580204 C240.372321,35.2580204 239.453283,35.6148334 238.682843,36.3318129 C237.909727,37.047451 237.525511,37.9307644 237.525511,38.9763875 L237.525511,40.2044412 Z M234.698782,43.0703471 L234.698782,39.4888031 C234.698782,37.7369318 235.362792,36.2245008 236.690812,34.9508393 C238.018164,33.6778486 239.612592,33.0393411 241.473427,33.0393411 C243.244567,33.0393411 244.776744,33.6349237 246.071966,34.8207233 C247.365179,36.008535 248.011786,37.4968208 248.011786,39.2835686 C248.011786,39.9515869 247.931462,40.4861357 247.772153,40.8878857 C247.614183,41.2916478 247.369865,41.5780371 247.040537,41.7517487 C246.711209,41.9241189 246.406648,42.0341139 246.120829,42.0797216 C245.837688,42.1266707 245.457488,42.1481331 244.98157,42.1481331 L237.525511,42.1481331 L237.525511,43.1722937 C237.525511,44.4231513 237.972647,45.4245081 238.868927,46.1736813 C239.765207,46.9255372 240.929233,47.2997885 242.359666,47.2997885 C243.108017,47.2997885 243.761317,47.1871107 244.316221,46.9590723 C244.873133,46.733046 245.320938,46.5103732 245.662314,46.2930661 C246.002352,46.0784417 246.274783,45.9697881 246.47827,45.9697881 C246.796888,45.9697881 247.06865,46.1119768 247.295565,46.396354 C247.52248,46.6800606 247.635603,46.9718156 247.635603,47.2662534 C247.635603,47.7894003 247.120192,48.3239491 246.08803,48.8692291 C245.0552,49.4151798 243.777382,49.6881552 242.257923,49.6881552 C240.032953,49.6881552 238.215626,49.0798292 236.809959,47.8625067 C235.400946,46.6471963 234.698782,45.0475741 234.698782,43.0703471 L234.698782,43.0703471 Z" id="Fill-30" fill="#2D2D2C" sketch:type="MSShapeGroup" mask="url(#mask-2)"></path>
                <path d="M73.1207844,36.6050566 C73.1207844,56.8374267 56.752128,73.2387521 36.5607269,73.2387521 C16.3686565,73.2387521 0,56.8374267 0,36.6050566 C0,16.3726864 16.3686565,-0.027968237 36.5607269,-0.027968237 C56.752128,-0.027968237 73.1207844,16.3726864 73.1207844,36.6050566 L73.1207844,36.6050566 Z" id="Fill-31" fill="#0076C7" sketch:type="MSShapeGroup" mask="url(#mask-2)"></path>
                <path d="M64.2823525,44.9372437 L64.2823525,45.8011068 C64.2823525,46.5046723 64.0213001,46.9755045 64.0213001,46.9755045 C63.7890304,47.3967048 63.4991953,47.5134068 63.0580836,47.5134068 C62.6163026,47.5134068 62.3284755,47.2920754 62.1932638,46.8500833 C62.0587214,46.408762 61.9911155,45.5482525 61.9911155,44.2705668 L61.9911155,42.3174851 C61.9911155,40.1799606 61.5995368,38.6567984 60.8150408,37.7473277 C60.0298755,36.8391983 58.6442895,36.249652 56.658283,35.9786888 L56.658283,35.8680231 C58.7667833,35.6963236 60.3364447,35.1617748 61.3659284,34.2643767 C62.3960814,33.36832 62.9108233,31.87601 62.9108233,29.7874467 C62.9108233,27.6988834 62.3224512,26.1750504 61.1457072,25.2172892 C60.6055295,24.7504812 59.6677489,24.3514141 58.331696,24.0187463 C56.9949737,23.6880907 54.7331887,23.5217568 51.5456716,23.5217568 L44.3546813,23.5217568 L44.3546813,24.2588573 L48.1794341,24.2588573 L42.625711,33.1778409 L37.6610294,24.2588573 L40.1617778,24.2588573 L40.1617778,23.5217568 L31.7967209,23.5217568 L29.1480429,23.5217568 L26.426404,23.5217568 L26.426404,24.2219688 L28.8173765,24.2219688 L28.8173765,40.8795019 C28.8173765,43.4355439 28.2778681,45.3389937 27.1988514,46.5918634 C26.1198347,47.8454038 24.5749399,48.4718387 22.5648362,48.4718387 C20.5540631,48.4718387 19.1624529,47.8702198 18.3900055,46.6656405 C17.617558,45.4624027 17.2313343,43.7306524 17.2313343,41.4697189 L17.2313343,24.2219688 L19.6223068,24.2219688 L19.6223068,23.5217568 L8.03626465,23.5217568 L8.03626465,24.2219688 L10.0590863,24.2219688 L10.0590863,40.2161785 C10.0590863,43.6803498 10.9600518,46.1257261 12.7626523,47.5502953 C14.5645834,48.9755352 17.175777,49.6884905 20.5969025,49.6884905 C24.0173587,49.6884905 26.4016375,48.9386467 27.7504083,47.4396296 C29.0991792,45.9412833 29.77323,43.6689479 29.77323,40.6219527 L29.77323,24.2950752 L37.4401389,37.7842162 L31.0035232,48.6187222 L28.5389205,48.6187222 L28.5389205,49.3189342 L36.1522803,49.3189342 L36.1522803,48.6187222 L32.2538974,48.6187222 L38.1021411,38.8895317 L43.5822339,48.6187222 L41.1551157,48.6187222 L41.1551157,49.3189342 L53.7338264,49.3189342 L53.7338264,48.6187222 L51.6005596,48.6187222 L43.2508981,34.2093792 L49.4666233,24.2588573 L51.2150052,24.2588573 C52.6367369,24.2588573 53.6722448,24.5351862 54.3221984,25.161621 C54.9721521,25.7880559 55.2967942,27.0724485 55.2967942,29.0127869 L55.2967942,30.0818845 C55.2967942,32.0228935 54.9601035,33.4233175 54.2860527,34.2831563 C53.6113326,35.1436659 52.5751553,35.5729146 51.1781901,35.5729146 L50.0007768,35.5729146 L50.0007768,36.2731266 L51.9506376,36.2731266 C52.9064911,36.2731266 53.562469,36.593051 53.9185712,37.2315585 C54.2733348,37.8707367 54.4513859,38.8774591 54.4513859,40.2537378 L54.4513859,42.94392 C54.4513859,45.5482525 54.8744247,47.3235983 55.7205023,48.2686162 C56.5665799,49.2149755 57.9943359,49.6884905 60.0051089,49.6884905 C62.015882,49.6884905 63.2301104,49.3578349 63.9476699,48.6898165 C64.5400581,48.1391709 65.0849214,47.1753734 65.0849214,46.083472 L65.0849214,44.9372437 L64.2823525,44.9372437 Z" id="Fill-32" fill="#FEFEFE" sketch:type="MSShapeGroup" mask="url(#mask-2)"></path>
            </g>
        </g>
    </g>
</svg>