<?xml version="1.0" encoding="utf-8"?>
<!-- Generator: Adobe Illustrator 16.0.0, SVG Export Plug-In . SVG Version: 6.00 Build 0)  -->
<!DOCTYPE svg PUBLIC "-//W3C//DTD SVG 1.1//EN" "http://www.w3.org/Graphics/SVG/1.1/DTD/svg11.dtd">
<svg version="1.1" id="logo_x5F_uxr" xmlns="http://www.w3.org/2000/svg" xmlns:xlink="http://www.w3.org/1999/xlink" x="0px"
	 y="0px" width="150px" height="150px" viewBox="0 0 150 150" enable-background="new 0 0 150 150" xml:space="preserve">
<path id="logo_x5F_uxr_1_" fill="#323C4F" d="M128.453,90.922v1.65c0,0,0,1.344-0.503,2.244c-0.448,0.804-1.007,1.025-1.858,1.025
	c-0.851,0-1.406-0.422-1.666-1.267c-0.261-0.844-0.391-2.487-0.391-4.931v-3.73c0-4.084-0.756-6.994-2.27-8.73
	c-1.514-1.737-4.186-2.864-8.014-3.38v-0.211c4.065-0.328,7.092-1.349,9.076-3.064c1.985-1.713,2.979-4.565,2.979-8.556
	c0-3.99-1.135-6.902-3.403-8.732c-1.041-0.892-2.851-1.655-5.427-2.29c-2.577-0.633-6.938-0.95-13.084-0.95H90.027v1.409h7.377
	L86.695,68.451l-9.573-17.043h4.821V50H65.814h-5.106H55.46v1.338h4.61v31.83c0,4.885-1.041,8.521-3.121,10.915
	c-2.081,2.396-5.059,3.593-8.936,3.593s-6.56-1.149-8.05-3.451c-1.489-2.299-2.234-5.608-2.234-9.93V51.338h4.61V50H20v1.338h3.901
	V81.9c0,6.621,1.738,11.293,5.213,14.015c3.475,2.724,8.51,4.085,15.105,4.085c6.596,0,11.193-1.434,13.794-4.297
	c2.6-2.863,3.901-7.205,3.901-13.027V51.478l14.781,25.776L64.286,97.957h-4.752v1.338h14.68v-1.338h-7.517l11.275-18.591
	L88.54,97.957h-4.681v1.338h24.254v-1.338H104L87.9,70.423l11.984-19.014h3.371c2.741,0,4.739,0.527,5.992,1.725
	c1.254,1.196,1.879,3.651,1.879,7.359v2.043c0,3.709-0.65,6.385-1.949,8.027c-1.301,1.644-3.299,2.465-5.992,2.465h-2.27v1.339h3.76
	c1.845,0,3.107,0.61,3.795,1.831c0.685,1.222,1.027,3.146,1.027,5.774v5.142c0,4.978,0.814,8.368,2.445,10.175
	c1.632,1.807,4.385,2.711,8.262,2.711s6.219-0.632,7.604-1.908c1.143-1.053,2.191-2.894,2.191-4.979c0-2.088,0-2.19,0-2.19H128.453
	L128.453,90.922z"/>
</svg>
